<svg xmlns="http://www.w3.org/2000/svg" xmlns:xlink="http://www.w3.org/1999/xlink" width="500" zoomAndPan="magnify" viewBox="0 0 375 374.999991" height="500" preserveAspectRatio="xMidYMid meet" version="1.0"><defs><clipPath id="82d98f47fe"><path d="M 65.101562 84.179688 L 323.101562 84.179688 L 323.101562 291 L 65.101562 291 Z M 65.101562 84.179688 " clip-rule="nonzero"/></clipPath></defs><rect x="-37.5" width="450" fill="#ffffff" y="-37.499999" height="449.999989" fill-opacity="1"/><rect x="-37.5" width="450" fill="#ffffff" y="-37.499999" height="449.999989" fill-opacity="1"/><path fill="#545454" d="M 89.527344 211.554688 C 84.039062 211.554688 79.574219 216.023438 79.574219 221.507812 C 79.574219 226.996094 84.039062 231.464844 89.527344 231.464844 C 95.011719 231.464844 99.484375 227 99.484375 221.507812 C 99.484375 216.019531 95.015625 211.554688 89.527344 211.554688 Z M 89.527344 225.734375 C 87.199219 225.734375 85.300781 223.839844 85.300781 221.507812 C 85.300781 219.171875 87.195312 217.28125 89.527344 217.28125 C 91.859375 217.28125 93.757812 219.175781 93.757812 221.507812 C 93.757812 223.835938 91.859375 225.734375 89.527344 225.734375 Z M 89.527344 225.734375 " fill-opacity="1" fill-rule="nonzero"/><g clip-path="url(#82d98f47fe)"><path fill="#545454" d="M 307.816406 181.890625 L 307.816406 94.492188 C 307.816406 88.902344 303.269531 84.351562 297.679688 84.351562 L 75.238281 84.351562 C 69.648438 84.351562 65.101562 88.902344 65.101562 94.492188 L 65.101562 229.765625 C 65.101562 235.367188 69.648438 239.929688 75.238281 239.929688 L 157.660156 239.929688 L 157.660156 264.476562 L 156.378906 264.476562 C 149.082031 264.476562 143.148438 270.410156 143.148438 277.703125 C 143.148438 284.996094 149.082031 290.933594 156.378906 290.933594 L 216.554688 290.933594 C 223.847656 290.933594 229.78125 285 229.78125 277.703125 C 229.78125 270.40625 223.847656 264.476562 216.554688 264.476562 L 215.269531 264.476562 L 215.269531 239.929688 L 232.273438 239.929688 C 240.398438 255.25 256.5 265.722656 275.023438 265.722656 C 301.691406 265.722656 323.394531 244.023438 323.394531 217.347656 C 323.394531 203.335938 317.371094 190.734375 307.820312 181.890625 Z M 70.828125 94.492188 C 70.828125 92.054688 72.804688 90.082031 75.238281 90.082031 L 297.679688 90.082031 C 300.113281 90.082031 302.089844 92.054688 302.089844 94.492188 L 302.089844 177.277344 C 300.8125 176.414062 299.492188 175.613281 298.136719 174.871094 L 298.136719 103.597656 C 298.136719 98.339844 293.859375 94.0625 288.601562 94.0625 L 84.34375 94.0625 C 79.070312 94.0625 74.777344 98.339844 74.777344 103.597656 L 74.777344 203.105469 L 70.828125 203.105469 Z M 228.789062 203.105469 L 80.507812 203.105469 L 80.507812 103.597656 C 80.507812 101.496094 82.226562 99.789062 84.34375 99.789062 L 288.601562 99.789062 C 290.699219 99.789062 292.410156 101.496094 292.410156 103.597656 L 292.410156 172.257812 C 287.003906 170.164062 281.152344 168.972656 275.019531 168.972656 C 253.300781 168.972656 234.882812 183.359375 228.789062 203.105469 Z M 216.554688 270.203125 C 220.6875 270.203125 224.054688 273.570312 224.054688 277.703125 C 224.054688 281.839844 220.6875 285.207031 216.554688 285.207031 L 156.378906 285.207031 C 152.246094 285.207031 148.875 281.839844 148.875 277.703125 C 148.875 273.570312 152.246094 270.203125 156.378906 270.203125 Z M 163.390625 264.476562 L 163.390625 239.929688 L 209.542969 239.929688 L 209.542969 264.476562 Z M 212.464844 234.203125 C 212.445312 234.203125 212.425781 234.191406 212.410156 234.191406 L 160.527344 234.191406 C 160.507812 234.191406 160.492188 234.203125 160.472656 234.203125 L 75.238281 234.203125 C 72.804688 234.203125 70.828125 232.214844 70.828125 229.765625 L 70.828125 208.832031 L 227.441406 208.832031 C 226.945312 211.601562 226.640625 214.4375 226.640625 217.347656 C 226.640625 223.28125 227.769531 228.945312 229.730469 234.203125 L 212.460938 234.203125 Z M 275.023438 259.996094 C 251.507812 259.996094 232.371094 240.863281 232.371094 217.347656 C 232.371094 193.832031 251.507812 174.699219 275.023438 174.699219 C 298.539062 174.699219 317.667969 193.832031 317.667969 217.347656 C 317.667969 240.863281 298.539062 259.996094 275.023438 259.996094 Z M 275.023438 259.996094 " fill-opacity="1" fill-rule="nonzero"/></g><path fill="#545454" d="M 301.46875 228.3125 L 289.601562 216.445312 C 291.769531 208.824219 289.871094 200.277344 283.878906 194.285156 C 278.203125 188.605469 269.832031 186.375 262.019531 188.464844 C 261.03125 188.726562 260.261719 189.496094 259.996094 190.488281 C 259.726562 191.476562 260.011719 192.53125 260.734375 193.253906 L 269.027344 201.546875 L 269.015625 208.144531 L 265.808594 211.351562 L 259.25 211.371094 L 250.941406 203.058594 C 250.222656 202.335938 249.160156 202.046875 248.175781 202.316406 C 247.1875 202.582031 246.417969 203.347656 246.148438 204.335938 C 244.042969 212.152344 246.261719 220.53125 251.949219 226.222656 C 256.347656 230.617188 262.121094 232.816406 267.898438 232.816406 C 269.992188 232.816406 272.085938 232.519531 274.113281 231.941406 L 285.980469 243.8125 C 288.117188 245.945312 290.921875 247.011719 293.722656 247.011719 C 296.527344 247.011719 299.332031 245.945312 301.46875 243.8125 C 303.539062 241.738281 304.675781 238.988281 304.675781 236.066406 C 304.675781 233.140625 303.539062 230.390625 301.46875 228.320312 Z M 255.996094 222.167969 C 253.078125 219.25 251.386719 215.375 251.125 211.34375 L 256.039062 216.257812 C 256.578125 216.796875 257.300781 217.097656 258.0625 217.097656 L 258.074219 217.097656 L 267 217.074219 C 267.757812 217.074219 268.484375 216.769531 269.015625 216.234375 L 273.898438 211.355469 C 274.433594 210.820312 274.734375 210.09375 274.734375 209.335938 L 274.753906 200.367188 C 274.753906 199.605469 274.457031 198.875 273.917969 198.335938 L 269.039062 193.457031 C 273.058594 193.730469 276.921875 195.429688 279.828125 198.335938 C 286.394531 204.902344 286.394531 215.582031 279.828125 222.148438 C 273.25 228.726562 262.5625 228.726562 256 222.167969 Z M 297.421875 239.753906 C 295.386719 241.789062 292.066406 241.792969 290.03125 239.753906 L 279.726562 229.449219 C 281.203125 228.542969 282.601562 227.472656 283.878906 226.195312 C 285.15625 224.917969 286.214844 223.527344 287.121094 222.0625 L 297.421875 232.363281 C 298.410156 233.351562 298.953125 234.664062 298.953125 236.058594 C 298.953125 237.453125 298.410156 238.769531 297.421875 239.753906 Z M 297.421875 239.753906 " fill-opacity="1" fill-rule="nonzero"/><path fill="#545454" d="M 134.941406 137.140625 C 135.511719 135.144531 135.820312 133.058594 135.820312 130.925781 C 135.820312 124.902344 133.472656 119.234375 129.210938 114.972656 C 123.535156 109.292969 115.160156 107.0625 107.347656 109.148438 C 106.363281 109.414062 105.589844 110.183594 105.324219 111.171875 C 105.058594 112.160156 105.34375 113.214844 106.066406 113.941406 L 114.359375 122.234375 L 114.34375 128.832031 L 111.136719 132.039062 L 104.578125 132.054688 L 96.269531 123.746094 C 95.546875 123.019531 94.488281 122.730469 93.507812 123.003906 C 92.519531 123.265625 91.75 124.035156 91.480469 125.023438 C 89.367188 132.832031 91.589844 141.21875 97.28125 146.90625 C 101.535156 151.164062 107.199219 153.507812 113.222656 153.507812 L 113.25 153.507812 C 115.375 153.507812 117.453125 153.195312 119.449219 152.628906 L 131.3125 164.496094 C 133.449219 166.628906 136.253906 167.695312 139.058594 167.695312 C 141.859375 167.695312 144.671875 166.628906 146.804688 164.496094 C 151.070312 160.226562 151.070312 153.277344 146.804688 149.007812 L 134.945312 137.148438 Z M 113.242188 147.773438 L 113.222656 147.773438 C 108.726562 147.773438 104.503906 146.027344 101.332031 142.851562 C 98.410156 139.933594 96.71875 136.0625 96.457031 132.027344 L 101.371094 136.941406 C 101.910156 137.480469 102.632812 137.78125 103.394531 137.78125 L 103.402344 137.78125 L 112.332031 137.761719 C 113.089844 137.761719 113.816406 137.457031 114.351562 136.921875 L 119.230469 132.039062 C 119.769531 131.5 120.066406 130.78125 120.070312 130.019531 L 120.089844 121.050781 C 120.089844 120.289062 119.792969 119.5625 119.25 119.023438 L 114.371094 114.144531 C 118.390625 114.417969 122.253906 116.113281 125.164062 119.023438 C 128.34375 122.199219 130.097656 126.429688 130.097656 130.925781 C 130.097656 135.421875 128.347656 139.65625 125.164062 142.832031 C 121.980469 146.015625 117.746094 147.769531 113.246094 147.773438 Z M 142.753906 160.441406 C 140.722656 162.472656 137.402344 162.480469 135.363281 160.441406 L 125.058594 150.136719 C 126.546875 149.222656 127.945312 148.148438 129.210938 146.882812 C 130.472656 145.617188 131.539062 144.226562 132.453125 142.75 L 142.75 153.046875 C 144.789062 155.085938 144.789062 158.398438 142.75 160.4375 Z M 142.753906 160.441406 " fill-opacity="1" fill-rule="nonzero"/><path fill="#545454" d="M 165.0625 114.101562 L 198.375 114.101562 C 199.960938 114.101562 201.238281 112.820312 201.238281 111.238281 C 201.238281 109.652344 199.960938 108.371094 198.375 108.371094 L 165.0625 108.371094 C 163.476562 108.371094 162.199219 109.652344 162.199219 111.238281 C 162.199219 112.820312 163.476562 114.101562 165.0625 114.101562 Z M 165.0625 114.101562 " fill-opacity="1" fill-rule="nonzero"/><path fill="#545454" d="M 165.0625 123.992188 L 221.597656 123.992188 C 223.179688 123.992188 224.460938 122.714844 224.460938 121.128906 C 224.460938 119.546875 223.179688 118.265625 221.597656 118.265625 L 165.0625 118.265625 C 163.476562 118.265625 162.199219 119.546875 162.199219 121.128906 C 162.199219 122.714844 163.476562 123.992188 165.0625 123.992188 Z M 165.0625 123.992188 " fill-opacity="1" fill-rule="nonzero"/><path fill="#545454" d="M 165.0625 133.890625 L 198.375 133.890625 C 199.960938 133.890625 201.238281 132.609375 201.238281 131.027344 C 201.238281 129.441406 199.960938 128.164062 198.375 128.164062 L 165.0625 128.164062 C 163.476562 128.164062 162.199219 129.441406 162.199219 131.027344 C 162.199219 132.609375 163.476562 133.890625 165.0625 133.890625 Z M 165.0625 133.890625 " fill-opacity="1" fill-rule="nonzero"/><path fill="#545454" d="M 165.0625 143.789062 L 208.328125 143.789062 C 209.914062 143.789062 211.195312 142.507812 211.195312 140.925781 C 211.195312 139.34375 209.914062 138.0625 208.328125 138.0625 L 165.0625 138.0625 C 163.476562 138.0625 162.199219 139.34375 162.199219 140.925781 C 162.199219 142.507812 163.476562 143.789062 165.0625 143.789062 Z M 165.0625 143.789062 " fill-opacity="1" fill-rule="nonzero"/><path fill="#545454" d="M 165.0625 153.683594 L 198.375 153.683594 C 199.960938 153.683594 201.238281 152.402344 201.238281 150.820312 C 201.238281 149.234375 199.960938 147.957031 198.375 147.957031 L 165.0625 147.957031 C 163.476562 147.957031 162.199219 149.234375 162.199219 150.820312 C 162.199219 152.402344 163.476562 153.683594 165.0625 153.683594 Z M 165.0625 153.683594 " fill-opacity="1" fill-rule="nonzero"/><path fill="#545454" d="M 223.433594 157.851562 L 165.058594 157.851562 C 163.476562 157.851562 162.195312 159.132812 162.195312 160.714844 C 162.195312 162.300781 163.476562 163.578125 165.058594 163.578125 L 223.433594 163.578125 C 225.015625 163.578125 226.296875 162.300781 226.296875 160.714844 C 226.296875 159.132812 225.015625 157.851562 223.433594 157.851562 Z M 223.433594 157.851562 " fill-opacity="1" fill-rule="nonzero"/><path fill="#545454" d="M 216.613281 167.75 L 206.121094 167.75 C 204.539062 167.75 203.257812 169.027344 203.257812 170.613281 C 203.257812 172.195312 204.539062 173.476562 206.121094 173.476562 L 216.613281 173.476562 C 218.199219 173.476562 219.476562 172.195312 219.476562 170.613281 C 219.476562 169.027344 218.199219 167.75 216.613281 167.75 Z M 216.613281 167.75 " fill-opacity="1" fill-rule="nonzero"/><path fill="#545454" d="M 198.375 167.75 L 165.058594 167.75 C 163.476562 167.75 162.195312 169.027344 162.195312 170.613281 C 162.195312 172.195312 163.476562 173.476562 165.058594 173.476562 L 198.375 173.476562 C 199.957031 173.476562 201.238281 172.195312 201.238281 170.613281 C 201.238281 169.027344 199.957031 167.75 198.375 167.75 Z M 198.375 167.75 " fill-opacity="1" fill-rule="nonzero"/></svg>