<svg xmlns="http://www.w3.org/2000/svg" xmlns:xlink="http://www.w3.org/1999/xlink" width="500" zoomAndPan="magnify" viewBox="0 0 375 374.999991" height="500" preserveAspectRatio="xMidYMid meet" version="1.0"><defs><clipPath id="e770987f74"><path d="M 121 65.699219 L 289.714844 65.699219 L 289.714844 302.699219 L 121 302.699219 Z M 121 65.699219 " clip-rule="nonzero"/></clipPath><clipPath id="f6eaadcd8f"><path d="M 52.714844 112 L 129 112 L 129 256 L 52.714844 256 Z M 52.714844 112 " clip-rule="nonzero"/></clipPath></defs><rect x="-37.5" width="450" fill="#ffffff" y="-37.499999" height="449.999989" fill-opacity="1"/><rect x="-37.5" width="450" fill="#ffffff" y="-37.499999" height="449.999989" fill-opacity="1"/><path fill="#545454" d="M 272.386719 269.933594 L 139.410156 269.933594 C 137.667969 269.933594 136.257812 268.523438 136.257812 266.78125 L 136.257812 101.464844 C 136.257812 99.726562 137.667969 98.3125 139.410156 98.3125 L 272.386719 98.3125 C 274.128906 98.3125 275.542969 99.726562 275.542969 101.464844 L 275.542969 266.78125 C 275.539062 268.523438 274.128906 269.933594 272.386719 269.933594 Z M 142.566406 263.628906 L 269.234375 263.628906 L 269.234375 104.621094 L 142.566406 104.621094 Z M 142.566406 263.628906 " fill-opacity="1" fill-rule="evenodd"/><g clip-path="url(#e770987f74)"><path fill="#545454" d="M 272.804688 302.457031 L 138.992188 302.457031 C 129.597656 302.457031 121.957031 294.8125 121.957031 285.417969 L 121.957031 82.828125 C 121.957031 73.433594 129.597656 65.789062 138.992188 65.789062 L 272.804688 65.789062 C 282.199219 65.789062 289.839844 73.433594 289.839844 82.828125 L 289.839844 285.417969 C 289.839844 294.808594 282.199219 302.457031 272.804688 302.457031 Z M 138.992188 72.097656 C 133.078125 72.097656 128.265625 76.914062 128.265625 82.828125 L 128.265625 285.414062 C 128.265625 291.332031 133.078125 296.148438 138.992188 296.148438 L 272.804688 296.148438 C 278.71875 296.148438 283.53125 291.335938 283.53125 285.414062 L 283.53125 82.832031 C 283.53125 76.914062 278.71875 72.101562 272.804688 72.101562 L 138.992188 72.101562 Z M 138.992188 72.097656 " fill-opacity="1" fill-rule="evenodd"/></g><path fill="#545454" d="M 233.75 286.195312 L 178.046875 286.195312 C 176.304688 286.195312 174.894531 284.78125 174.894531 283.042969 C 174.894531 281.300781 176.304688 279.886719 178.046875 279.886719 L 233.75 279.886719 C 235.492188 279.886719 236.902344 281.300781 236.902344 283.042969 C 236.902344 284.78125 235.488281 286.195312 233.75 286.195312 Z M 233.75 286.195312 " fill-opacity="1" fill-rule="evenodd"/><path fill="#545454" d="M 240.101562 88.359375 L 195.375 88.359375 C 193.632812 88.359375 192.21875 86.945312 192.21875 85.207031 C 192.21875 83.464844 193.632812 82.050781 195.375 82.050781 L 240.101562 82.050781 C 241.84375 82.050781 243.253906 83.464844 243.253906 85.207031 C 243.253906 86.945312 241.84375 88.359375 240.101562 88.359375 Z M 240.101562 88.359375 " fill-opacity="1" fill-rule="evenodd"/><path fill="#545454" d="M 174.324219 88.359375 L 171.695312 88.359375 C 169.953125 88.359375 168.542969 86.945312 168.542969 85.207031 C 168.542969 83.464844 169.953125 82.050781 171.695312 82.050781 L 174.324219 82.050781 C 176.066406 82.050781 177.476562 83.464844 177.476562 85.207031 C 177.476562 86.945312 176.066406 88.359375 174.324219 88.359375 Z M 174.324219 88.359375 " fill-opacity="1" fill-rule="evenodd"/><path fill="#545454" d="M 189.023438 205.046875 C 188.21875 205.046875 187.410156 204.738281 186.792969 204.125 L 169.664062 186.992188 C 168.429688 185.761719 168.429688 183.765625 169.664062 182.53125 L 186.792969 165.402344 C 188.023438 164.167969 190.023438 164.167969 191.253906 165.402344 C 192.484375 166.632812 192.484375 168.628906 191.253906 169.863281 L 176.351562 184.761719 L 191.253906 199.667969 C 192.484375 200.894531 192.484375 202.894531 191.253906 204.125 C 190.640625 204.738281 189.832031 205.046875 189.023438 205.046875 Z M 189.023438 205.046875 " fill-opacity="1" fill-rule="evenodd"/><path fill="#545454" d="M 222.773438 205.046875 C 221.96875 205.046875 221.160156 204.738281 220.542969 204.125 C 219.3125 202.894531 219.3125 200.894531 220.542969 199.664062 L 235.445312 184.761719 L 220.542969 169.859375 C 219.3125 168.628906 219.3125 166.632812 220.542969 165.398438 C 221.773438 164.167969 223.773438 164.167969 225.003906 165.398438 L 242.136719 182.53125 C 243.367188 183.761719 243.367188 185.761719 242.136719 186.992188 L 225.003906 204.121094 C 224.386719 204.742188 223.582031 205.050781 222.773438 205.050781 Z M 222.773438 205.046875 " fill-opacity="1" fill-rule="evenodd"/><path fill="#545454" d="M 198.710938 211.03125 C 198.40625 211.03125 198.101562 210.988281 197.796875 210.894531 C 196.125 210.390625 195.183594 208.632812 195.691406 206.964844 L 210.074219 159.453125 C 210.574219 157.785156 212.335938 156.84375 214.003906 157.347656 C 215.671875 157.855469 216.617188 159.613281 216.109375 161.28125 L 201.726562 208.789062 C 201.3125 210.152344 200.0625 211.03125 198.710938 211.03125 Z M 198.710938 211.03125 " fill-opacity="1" fill-rule="evenodd"/><path fill="#545454" d="M 251.71875 124.796875 L 160.082031 124.796875 C 158.339844 124.796875 156.925781 123.386719 156.925781 121.644531 C 156.925781 119.902344 158.339844 118.488281 160.082031 118.488281 L 251.71875 118.488281 C 253.457031 118.488281 254.871094 119.902344 254.871094 121.644531 C 254.871094 123.386719 253.457031 124.796875 251.71875 124.796875 Z M 251.71875 124.796875 " fill-opacity="1" fill-rule="evenodd"/><path fill="#545454" d="M 251.71875 141.78125 L 160.082031 141.78125 C 158.339844 141.78125 156.925781 140.371094 156.925781 138.628906 C 156.925781 136.886719 158.339844 135.476562 160.082031 135.476562 L 251.71875 135.476562 C 253.457031 135.476562 254.871094 136.886719 254.871094 138.628906 C 254.871094 140.371094 253.457031 141.78125 251.71875 141.78125 Z M 251.71875 141.78125 " fill-opacity="1" fill-rule="evenodd"/><path fill="#545454" d="M 251.71875 232.773438 L 160.082031 232.773438 C 158.339844 232.773438 156.925781 231.363281 156.925781 229.621094 C 156.925781 227.878906 158.339844 226.464844 160.082031 226.464844 L 251.71875 226.464844 C 253.457031 226.464844 254.871094 227.878906 254.871094 229.621094 C 254.871094 231.363281 253.457031 232.773438 251.71875 232.773438 Z M 251.71875 232.773438 " fill-opacity="1" fill-rule="evenodd"/><path fill="#545454" d="M 251.71875 249.757812 L 160.082031 249.757812 C 158.339844 249.757812 156.925781 248.34375 156.925781 246.601562 C 156.925781 244.863281 158.339844 243.449219 160.082031 243.449219 L 251.71875 243.449219 C 253.457031 243.449219 254.871094 244.863281 254.871094 246.601562 C 254.871094 248.347656 253.457031 249.757812 251.71875 249.757812 Z M 251.71875 249.757812 " fill-opacity="1" fill-rule="evenodd"/><g clip-path="url(#f6eaadcd8f)"><path fill="#545454" d="M 125.109375 255.734375 L 106.363281 255.734375 C 104.621094 255.734375 103.207031 254.324219 103.207031 252.582031 L 103.207031 230.820312 C 100.042969 229.40625 97.023438 227.679688 94.195312 225.65625 L 75.378906 236.515625 C 73.871094 237.382812 71.941406 236.867188 71.070312 235.359375 L 53.253906 204.5 C 52.835938 203.773438 52.722656 202.910156 52.9375 202.109375 C 53.152344 201.296875 53.683594 200.609375 54.410156 200.191406 L 73.09375 189.40625 C 72.730469 185.878906 72.730469 182.34375 73.09375 178.847656 L 54.40625 168.058594 C 53.683594 167.640625 53.152344 166.949219 52.9375 166.144531 C 52.71875 165.335938 52.832031 164.472656 53.25 163.75 L 71.066406 132.886719 C 71.488281 132.164062 72.175781 131.636719 72.984375 131.417969 C 73.789062 131.203125 74.652344 131.316406 75.375 131.730469 L 94.222656 142.613281 C 97.039062 140.597656 100.046875 138.871094 103.203125 137.460938 L 103.203125 115.664062 C 103.203125 113.921875 104.617188 112.507812 106.355469 112.507812 L 125.105469 112.507812 C 126.847656 112.507812 128.261719 113.917969 128.261719 115.660156 L 128.261719 252.578125 C 128.261719 254.324219 126.851562 255.738281 125.109375 255.738281 Z M 109.515625 249.429688 L 121.953125 249.429688 L 121.953125 118.816406 L 109.515625 118.816406 L 109.515625 139.554688 C 109.515625 140.84375 108.726562 142.007812 107.523438 142.484375 C 103.53125 144.066406 99.785156 146.214844 96.390625 148.867188 C 95.378906 149.65625 93.984375 149.753906 92.871094 149.113281 L 74.957031 138.769531 L 60.292969 164.167969 L 78.058594 174.425781 C 79.179688 175.074219 79.789062 176.335938 79.601562 177.617188 C 78.972656 181.902344 78.972656 186.285156 79.601562 190.640625 C 79.789062 191.914062 79.171875 193.179688 78.054688 193.824219 L 60.292969 204.074219 L 74.957031 229.472656 L 92.839844 219.148438 C 93.949219 218.511719 95.34375 218.605469 96.359375 219.394531 C 99.765625 222.054688 103.523438 224.207031 107.523438 225.789062 C 108.726562 226.265625 109.519531 227.425781 109.519531 228.722656 L 109.519531 249.429688 Z M 109.515625 249.429688 " fill-opacity="1" fill-rule="evenodd"/></g><path fill="#545454" d="M 124.121094 215.496094 C 107.714844 215.496094 94.246094 203.210938 92.792969 186.921875 C 92.046875 178.570312 94.613281 170.429688 100.019531 164 C 105.421875 157.570312 113.011719 153.621094 121.390625 152.875 C 122.679688 152.761719 123.949219 152.726562 125.207031 152.765625 C 126.910156 152.820312 128.261719 154.214844 128.261719 155.917969 L 128.261719 212.324219 C 128.261719 214.023438 126.914062 215.417969 125.21875 215.476562 C 124.851562 215.492188 124.484375 215.5 124.121094 215.5 Z M 121.953125 159.160156 C 115.246094 159.757812 109.171875 162.917969 104.847656 168.058594 C 100.53125 173.195312 98.480469 179.695312 99.074219 186.363281 C 100.171875 198.652344 109.835938 208.085938 121.953125 209.101562 Z M 121.953125 159.160156 " fill-opacity="1" fill-rule="evenodd"/></svg>