<svg xmlns="http://www.w3.org/2000/svg" xmlns:xlink="http://www.w3.org/1999/xlink" width="500" zoomAndPan="magnify" viewBox="0 0 375 374.999991" height="500" preserveAspectRatio="xMidYMid meet" version="1.0"><defs><clipPath id="6b3ad164b4"><path d="M 80.917969 80.917969 L 293.917969 80.917969 L 293.917969 293.917969 L 80.917969 293.917969 Z M 80.917969 80.917969 " clip-rule="nonzero"/></clipPath></defs><rect x="-37.5" width="450" fill="#ffffff" y="-37.499999" height="449.999989" fill-opacity="1"/><rect x="-37.5" width="450" fill="#ffffff" y="-37.499999" height="449.999989" fill-opacity="1"/><g clip-path="url(#6b3ad164b4)"><path fill="#545454" d="M 260.425781 215.546875 C 263.523438 215.546875 266.035156 213.039062 266.035156 209.9375 L 266.035156 193.109375 L 288.472656 193.109375 C 291.574219 193.109375 294.082031 190.601562 294.082031 187.5 L 294.082031 108.964844 C 294.082031 105.863281 291.574219 103.355469 288.472656 103.355469 L 237.984375 103.355469 L 237.984375 86.527344 C 237.984375 83.425781 235.476562 80.917969 232.375 80.917969 L 198.71875 80.917969 C 195.617188 80.917969 193.109375 83.425781 193.109375 86.527344 C 193.109375 89.628906 195.617188 92.136719 198.71875 92.136719 L 226.765625 92.136719 L 226.765625 125.792969 L 92.136719 125.792969 L 92.136719 92.136719 L 176.28125 92.136719 C 179.382812 92.136719 181.890625 89.628906 181.890625 86.527344 C 181.890625 83.425781 179.382812 80.917969 176.28125 80.917969 L 86.527344 80.917969 C 83.425781 80.917969 80.917969 83.425781 80.917969 86.527344 L 80.917969 131.402344 C 80.917969 134.503906 83.425781 137.011719 86.527344 137.011719 L 131.402344 137.011719 L 131.402344 159.453125 L 114.574219 159.453125 C 111.472656 159.453125 108.964844 161.960938 108.964844 165.0625 L 108.964844 181.890625 L 86.527344 181.890625 C 83.425781 181.890625 80.917969 184.398438 80.917969 187.5 L 80.917969 221.15625 C 80.917969 224.257812 83.425781 226.765625 86.527344 226.765625 C 89.628906 226.765625 92.136719 224.257812 92.136719 221.15625 L 92.136719 193.109375 L 108.964844 193.109375 L 108.964844 209.9375 C 108.964844 213.039062 111.472656 215.546875 114.574219 215.546875 L 165.0625 215.546875 L 165.0625 237.984375 L 142.621094 237.984375 C 139.523438 237.984375 137.011719 240.496094 137.011719 243.59375 L 137.011719 260.425781 L 92.136719 260.425781 L 92.136719 243.59375 C 92.136719 240.496094 89.628906 237.984375 86.527344 237.984375 C 83.425781 237.984375 80.917969 240.496094 80.917969 243.59375 L 80.917969 266.035156 C 80.917969 269.132812 83.425781 271.644531 86.527344 271.644531 L 137.011719 271.644531 L 137.011719 288.472656 C 137.011719 291.574219 139.523438 294.082031 142.621094 294.082031 L 288.472656 294.082031 C 291.574219 294.082031 294.082031 291.574219 294.082031 288.472656 L 294.082031 243.59375 C 294.082031 240.496094 291.574219 237.984375 288.472656 237.984375 L 176.28125 237.984375 L 176.28125 215.546875 Z M 282.863281 282.863281 L 148.234375 282.863281 L 148.234375 249.203125 L 282.863281 249.203125 Z M 142.621094 137.011719 L 232.375 137.011719 C 235.476562 137.011719 237.984375 134.503906 237.984375 131.402344 L 237.984375 114.574219 L 282.863281 114.574219 L 282.863281 181.890625 L 266.035156 181.890625 L 266.035156 165.0625 C 266.035156 161.960938 263.523438 159.453125 260.425781 159.453125 L 142.621094 159.453125 Z M 120.183594 170.671875 L 254.816406 170.671875 L 254.816406 204.328125 L 120.183594 204.328125 Z M 120.183594 170.671875 " fill-opacity="1" fill-rule="nonzero"/></g><path fill="#545454" d="M 114.574219 108.964844 C 114.574219 109.332031 114.539062 109.699219 114.46875 110.058594 C 114.394531 110.421875 114.289062 110.773438 114.148438 111.113281 C 114.007812 111.453125 113.835938 111.777344 113.628906 112.082031 C 113.425781 112.386719 113.191406 112.671875 112.933594 112.933594 C 112.671875 113.191406 112.386719 113.425781 112.082031 113.628906 C 111.777344 113.835938 111.453125 114.007812 111.113281 114.148438 C 110.773438 114.289062 110.421875 114.394531 110.058594 114.46875 C 109.699219 114.539062 109.332031 114.574219 108.964844 114.574219 C 108.597656 114.574219 108.230469 114.539062 107.871094 114.46875 C 107.511719 114.394531 107.160156 114.289062 106.820312 114.148438 C 106.476562 114.007812 106.15625 113.835938 105.847656 113.628906 C 105.542969 113.425781 105.257812 113.191406 105 112.933594 C 104.738281 112.671875 104.507812 112.386719 104.300781 112.082031 C 104.097656 111.777344 103.925781 111.453125 103.78125 111.113281 C 103.640625 110.773438 103.535156 110.421875 103.464844 110.058594 C 103.390625 109.699219 103.355469 109.332031 103.355469 108.964844 C 103.355469 108.597656 103.390625 108.230469 103.464844 107.871094 C 103.535156 107.511719 103.640625 107.160156 103.78125 106.820312 C 103.925781 106.480469 104.097656 106.15625 104.300781 105.847656 C 104.507812 105.542969 104.738281 105.257812 105 105 C 105.257812 104.738281 105.542969 104.507812 105.847656 104.300781 C 106.15625 104.097656 106.476562 103.925781 106.820312 103.78125 C 107.160156 103.640625 107.511719 103.535156 107.871094 103.464844 C 108.230469 103.390625 108.597656 103.355469 108.964844 103.355469 C 109.332031 103.355469 109.699219 103.390625 110.058594 103.464844 C 110.421875 103.535156 110.773438 103.640625 111.113281 103.78125 C 111.453125 103.925781 111.777344 104.097656 112.082031 104.300781 C 112.386719 104.507812 112.671875 104.738281 112.933594 105 C 113.191406 105.257812 113.425781 105.542969 113.628906 105.847656 C 113.835938 106.15625 114.007812 106.480469 114.148438 106.820312 C 114.289062 107.160156 114.394531 107.511719 114.46875 107.871094 C 114.539062 108.230469 114.574219 108.597656 114.574219 108.964844 Z M 114.574219 108.964844 " fill-opacity="1" fill-rule="nonzero"/><path fill="#545454" d="M 137.011719 108.964844 C 137.011719 109.332031 136.976562 109.699219 136.90625 110.058594 C 136.832031 110.421875 136.726562 110.773438 136.585938 111.113281 C 136.445312 111.453125 136.273438 111.777344 136.066406 112.082031 C 135.863281 112.386719 135.628906 112.671875 135.371094 112.933594 C 135.109375 113.191406 134.828125 113.425781 134.519531 113.628906 C 134.214844 113.835938 133.890625 114.007812 133.550781 114.148438 C 133.210938 114.289062 132.859375 114.394531 132.5 114.46875 C 132.136719 114.539062 131.773438 114.574219 131.402344 114.574219 C 131.035156 114.574219 130.671875 114.539062 130.308594 114.46875 C 129.949219 114.394531 129.597656 114.289062 129.257812 114.148438 C 128.917969 114.007812 128.59375 113.835938 128.289062 113.628906 C 127.980469 113.425781 127.699219 113.191406 127.4375 112.933594 C 127.175781 112.671875 126.945312 112.386719 126.738281 112.082031 C 126.535156 111.777344 126.363281 111.453125 126.222656 111.113281 C 126.082031 110.773438 125.972656 110.421875 125.902344 110.058594 C 125.832031 109.699219 125.792969 109.332031 125.792969 108.964844 C 125.792969 108.597656 125.832031 108.230469 125.902344 107.871094 C 125.972656 107.511719 126.082031 107.160156 126.222656 106.820312 C 126.363281 106.480469 126.535156 106.15625 126.738281 105.847656 C 126.945312 105.542969 127.175781 105.257812 127.4375 105 C 127.699219 104.738281 127.980469 104.507812 128.289062 104.300781 C 128.59375 104.097656 128.917969 103.925781 129.257812 103.78125 C 129.597656 103.640625 129.949219 103.535156 130.308594 103.464844 C 130.671875 103.390625 131.035156 103.355469 131.402344 103.355469 C 131.773438 103.355469 132.136719 103.390625 132.5 103.464844 C 132.859375 103.535156 133.210938 103.640625 133.550781 103.78125 C 133.890625 103.925781 134.214844 104.097656 134.519531 104.300781 C 134.828125 104.507812 135.109375 104.738281 135.371094 105 C 135.628906 105.257812 135.863281 105.542969 136.066406 105.847656 C 136.273438 106.15625 136.445312 106.480469 136.585938 106.820312 C 136.726562 107.160156 136.832031 107.511719 136.90625 107.871094 C 136.976562 108.230469 137.011719 108.597656 137.011719 108.964844 Z M 137.011719 108.964844 " fill-opacity="1" fill-rule="nonzero"/><path fill="#545454" d="M 148.234375 108.964844 C 148.234375 112.066406 150.742188 114.574219 153.84375 114.574219 L 209.9375 114.574219 C 213.039062 114.574219 215.546875 112.066406 215.546875 108.964844 C 215.546875 105.863281 213.039062 103.355469 209.9375 103.355469 L 153.84375 103.355469 C 150.742188 103.355469 148.234375 105.863281 148.234375 108.964844 Z M 148.234375 108.964844 " fill-opacity="1" fill-rule="nonzero"/><path fill="#545454" d="M 142.621094 187.5 C 142.621094 187.867188 142.585938 188.234375 142.515625 188.59375 C 142.441406 188.957031 142.335938 189.304688 142.195312 189.644531 C 142.054688 189.988281 141.882812 190.308594 141.675781 190.617188 C 141.472656 190.921875 141.242188 191.207031 140.980469 191.464844 C 140.71875 191.726562 140.4375 191.960938 140.128906 192.164062 C 139.824219 192.367188 139.5 192.542969 139.160156 192.683594 C 138.820312 192.824219 138.46875 192.929688 138.109375 193 C 137.746094 193.074219 137.382812 193.109375 137.011719 193.109375 C 136.644531 193.109375 136.28125 193.074219 135.917969 193 C 135.558594 192.929688 135.207031 192.824219 134.867188 192.683594 C 134.527344 192.542969 134.203125 192.367188 133.898438 192.164062 C 133.589844 191.960938 133.308594 191.726562 133.046875 191.464844 C 132.785156 191.207031 132.554688 190.921875 132.347656 190.617188 C 132.144531 190.308594 131.972656 189.988281 131.832031 189.644531 C 131.691406 189.304688 131.582031 188.957031 131.511719 188.59375 C 131.441406 188.234375 131.402344 187.867188 131.402344 187.5 C 131.402344 187.132812 131.441406 186.765625 131.511719 186.40625 C 131.582031 186.042969 131.691406 185.691406 131.832031 185.351562 C 131.972656 185.011719 132.144531 184.6875 132.347656 184.382812 C 132.554688 184.078125 132.785156 183.792969 133.046875 183.53125 C 133.308594 183.273438 133.589844 183.039062 133.898438 182.835938 C 134.203125 182.628906 134.527344 182.457031 134.867188 182.316406 C 135.207031 182.175781 135.558594 182.070312 135.917969 181.996094 C 136.28125 181.925781 136.644531 181.890625 137.011719 181.890625 C 137.382812 181.890625 137.746094 181.925781 138.109375 181.996094 C 138.46875 182.070312 138.820312 182.175781 139.160156 182.316406 C 139.5 182.457031 139.824219 182.628906 140.128906 182.835938 C 140.4375 183.039062 140.71875 183.273438 140.980469 183.53125 C 141.242188 183.792969 141.472656 184.078125 141.675781 184.382812 C 141.882812 184.6875 142.054688 185.011719 142.195312 185.351562 C 142.335938 185.691406 142.441406 186.042969 142.515625 186.40625 C 142.585938 186.765625 142.621094 187.132812 142.621094 187.5 Z M 142.621094 187.5 " fill-opacity="1" fill-rule="nonzero"/><path fill="#545454" d="M 165.0625 187.5 C 165.0625 187.867188 165.023438 188.234375 164.953125 188.59375 C 164.882812 188.957031 164.773438 189.304688 164.632812 189.644531 C 164.492188 189.988281 164.320312 190.308594 164.117188 190.617188 C 163.910156 190.921875 163.679688 191.207031 163.417969 191.464844 C 163.15625 191.726562 162.875 191.960938 162.566406 192.164062 C 162.261719 192.367188 161.9375 192.542969 161.597656 192.683594 C 161.257812 192.824219 160.90625 192.929688 160.546875 193 C 160.183594 193.074219 159.820312 193.109375 159.453125 193.109375 C 159.082031 193.109375 158.71875 193.074219 158.355469 193 C 157.996094 192.929688 157.644531 192.824219 157.304688 192.683594 C 156.964844 192.542969 156.640625 192.367188 156.335938 192.164062 C 156.027344 191.960938 155.746094 191.726562 155.484375 191.464844 C 155.226562 191.207031 154.992188 190.921875 154.789062 190.617188 C 154.582031 190.308594 154.410156 189.988281 154.269531 189.644531 C 154.128906 189.304688 154.023438 188.957031 153.949219 188.59375 C 153.878906 188.234375 153.84375 187.867188 153.84375 187.5 C 153.84375 187.132812 153.878906 186.765625 153.949219 186.40625 C 154.023438 186.042969 154.128906 185.691406 154.269531 185.351562 C 154.410156 185.011719 154.582031 184.6875 154.789062 184.382812 C 154.992188 184.078125 155.226562 183.792969 155.484375 183.53125 C 155.746094 183.273438 156.027344 183.039062 156.335938 182.835938 C 156.640625 182.628906 156.964844 182.457031 157.304688 182.316406 C 157.644531 182.175781 157.996094 182.070312 158.355469 181.996094 C 158.71875 181.925781 159.082031 181.890625 159.453125 181.890625 C 159.820312 181.890625 160.183594 181.925781 160.546875 181.996094 C 160.90625 182.070312 161.257812 182.175781 161.597656 182.316406 C 161.9375 182.457031 162.261719 182.628906 162.566406 182.835938 C 162.875 183.039062 163.15625 183.273438 163.417969 183.53125 C 163.679688 183.792969 163.910156 184.078125 164.117188 184.382812 C 164.320312 184.6875 164.492188 185.011719 164.632812 185.351562 C 164.773438 185.691406 164.882812 186.042969 164.953125 186.40625 C 165.023438 186.765625 165.0625 187.132812 165.0625 187.5 Z M 165.0625 187.5 " fill-opacity="1" fill-rule="nonzero"/><path fill="#545454" d="M 181.890625 193.109375 L 237.984375 193.109375 C 241.085938 193.109375 243.59375 190.601562 243.59375 187.5 C 243.59375 184.398438 241.085938 181.890625 237.984375 181.890625 L 181.890625 181.890625 C 178.789062 181.890625 176.28125 184.398438 176.28125 187.5 C 176.28125 190.601562 178.789062 193.109375 181.890625 193.109375 Z M 181.890625 193.109375 " fill-opacity="1" fill-rule="nonzero"/><path fill="#545454" d="M 170.671875 266.035156 C 170.671875 266.402344 170.636719 266.765625 170.5625 267.128906 C 170.492188 267.488281 170.386719 267.839844 170.242188 268.179688 C 170.101562 268.519531 169.929688 268.84375 169.726562 269.148438 C 169.519531 269.457031 169.289062 269.738281 169.027344 270 C 168.765625 270.261719 168.484375 270.492188 168.179688 270.699219 C 167.871094 270.902344 167.546875 271.074219 167.207031 271.214844 C 166.867188 271.355469 166.515625 271.464844 166.15625 271.535156 C 165.792969 271.605469 165.429688 271.644531 165.0625 271.644531 C 164.691406 271.644531 164.328125 271.605469 163.96875 271.535156 C 163.605469 271.464844 163.253906 271.355469 162.914062 271.214844 C 162.574219 271.074219 162.25 270.902344 161.945312 270.699219 C 161.636719 270.492188 161.355469 270.261719 161.09375 270 C 160.835938 269.738281 160.601562 269.457031 160.398438 269.148438 C 160.191406 268.84375 160.019531 268.519531 159.878906 268.179688 C 159.738281 267.839844 159.632812 267.488281 159.558594 267.128906 C 159.488281 266.765625 159.453125 266.402344 159.453125 266.035156 C 159.453125 265.664062 159.488281 265.300781 159.558594 264.9375 C 159.632812 264.578125 159.738281 264.226562 159.878906 263.886719 C 160.019531 263.546875 160.191406 263.222656 160.398438 262.917969 C 160.601562 262.609375 160.835938 262.328125 161.09375 262.066406 C 161.355469 261.808594 161.636719 261.574219 161.945312 261.371094 C 162.25 261.164062 162.574219 260.992188 162.914062 260.851562 C 163.253906 260.710938 163.605469 260.605469 163.96875 260.53125 C 164.328125 260.460938 164.691406 260.425781 165.0625 260.425781 C 165.429688 260.425781 165.792969 260.460938 166.15625 260.53125 C 166.515625 260.605469 166.867188 260.710938 167.207031 260.851562 C 167.546875 260.992188 167.871094 261.164062 168.179688 261.371094 C 168.484375 261.574219 168.765625 261.808594 169.027344 262.066406 C 169.289062 262.328125 169.519531 262.609375 169.726562 262.917969 C 169.929688 263.222656 170.101562 263.546875 170.242188 263.886719 C 170.386719 264.226562 170.492188 264.578125 170.5625 264.9375 C 170.636719 265.300781 170.671875 265.664062 170.671875 266.035156 Z M 170.671875 266.035156 " fill-opacity="1" fill-rule="nonzero"/><path fill="#545454" d="M 193.109375 266.035156 C 193.109375 266.402344 193.074219 266.765625 193 267.128906 C 192.929688 267.488281 192.824219 267.839844 192.683594 268.179688 C 192.542969 268.519531 192.367188 268.84375 192.164062 269.148438 C 191.960938 269.457031 191.726562 269.738281 191.464844 270 C 191.207031 270.261719 190.921875 270.492188 190.617188 270.699219 C 190.308594 270.902344 189.988281 271.074219 189.644531 271.214844 C 189.304688 271.355469 188.957031 271.464844 188.59375 271.535156 C 188.234375 271.605469 187.867188 271.644531 187.5 271.644531 C 187.132812 271.644531 186.765625 271.605469 186.40625 271.535156 C 186.042969 271.464844 185.691406 271.355469 185.351562 271.214844 C 185.011719 271.074219 184.6875 270.902344 184.382812 270.699219 C 184.078125 270.492188 183.792969 270.261719 183.53125 270 C 183.273438 269.738281 183.039062 269.457031 182.835938 269.148438 C 182.628906 268.84375 182.457031 268.519531 182.316406 268.179688 C 182.175781 267.839844 182.070312 267.488281 181.996094 267.128906 C 181.925781 266.765625 181.890625 266.402344 181.890625 266.035156 C 181.890625 265.664062 181.925781 265.300781 181.996094 264.9375 C 182.070312 264.578125 182.175781 264.226562 182.316406 263.886719 C 182.457031 263.546875 182.628906 263.222656 182.835938 262.917969 C 183.039062 262.609375 183.273438 262.328125 183.53125 262.066406 C 183.792969 261.808594 184.078125 261.574219 184.382812 261.371094 C 184.6875 261.164062 185.011719 260.992188 185.351562 260.851562 C 185.691406 260.710938 186.042969 260.605469 186.40625 260.53125 C 186.765625 260.460938 187.132812 260.425781 187.5 260.425781 C 187.867188 260.425781 188.234375 260.460938 188.59375 260.53125 C 188.957031 260.605469 189.304688 260.710938 189.644531 260.851562 C 189.988281 260.992188 190.308594 261.164062 190.617188 261.371094 C 190.921875 261.574219 191.207031 261.808594 191.464844 262.066406 C 191.726562 262.328125 191.960938 262.609375 192.164062 262.917969 C 192.367188 263.222656 192.542969 263.546875 192.683594 263.886719 C 192.824219 264.226562 192.929688 264.578125 193 264.9375 C 193.074219 265.300781 193.109375 265.664062 193.109375 266.035156 Z M 193.109375 266.035156 " fill-opacity="1" fill-rule="nonzero"/><path fill="#545454" d="M 209.9375 271.644531 L 266.035156 271.644531 C 269.132812 271.644531 271.644531 269.132812 271.644531 266.035156 C 271.644531 262.933594 269.132812 260.425781 266.035156 260.425781 L 209.9375 260.425781 C 206.835938 260.425781 204.328125 262.933594 204.328125 266.035156 C 204.328125 269.132812 206.835938 271.644531 209.9375 271.644531 Z M 209.9375 271.644531 " fill-opacity="1" fill-rule="nonzero"/></svg>