<svg xmlns="http://www.w3.org/2000/svg" xmlns:xlink="http://www.w3.org/1999/xlink" width="500" zoomAndPan="magnify" viewBox="0 0 375 374.999991" height="500" preserveAspectRatio="xMidYMid meet" version="1.0"><defs><clipPath id="4b6d51a0c9"><path d="M 218 225 L 303 225 L 303 302.902344 L 218 302.902344 Z M 218 225 " clip-rule="nonzero"/></clipPath><clipPath id="70ba58e241"><path d="M 81 183 L 200 183 L 200 302.902344 L 81 302.902344 Z M 81 183 " clip-rule="nonzero"/></clipPath></defs><rect x="-37.5" width="450" fill="#ffffff" y="-37.499999" height="449.999989" fill-opacity="1"/><rect x="-37.5" width="450" fill="#ffffff" y="-37.499999" height="449.999989" fill-opacity="1"/><path fill="#545454" d="M 224.667969 214.464844 C 224.667969 215.089844 224.605469 215.710938 224.484375 216.324219 C 224.363281 216.9375 224.179688 217.535156 223.941406 218.113281 C 223.703125 218.691406 223.410156 219.242188 223.058594 219.761719 C 222.710938 220.28125 222.316406 220.765625 221.875 221.207031 C 221.429688 221.648438 220.949219 222.046875 220.429688 222.394531 C 219.910156 222.742188 219.359375 223.035156 218.78125 223.273438 C 218.203125 223.515625 217.605469 223.695312 216.992188 223.816406 C 216.375 223.941406 215.757812 224 215.128906 224 C 214.503906 224 213.882812 223.941406 213.269531 223.816406 C 212.65625 223.695312 212.058594 223.515625 211.480469 223.273438 C 210.902344 223.035156 210.351562 222.742188 209.832031 222.394531 C 209.308594 222.046875 208.828125 221.648438 208.386719 221.207031 C 207.941406 220.765625 207.546875 220.28125 207.199219 219.761719 C 206.851562 219.242188 206.558594 218.691406 206.320312 218.113281 C 206.078125 217.535156 205.898438 216.9375 205.777344 216.324219 C 205.652344 215.710938 205.59375 215.089844 205.59375 214.464844 C 205.59375 213.835938 205.652344 213.214844 205.777344 212.601562 C 205.898438 211.988281 206.078125 211.390625 206.320312 210.8125 C 206.558594 210.234375 206.851562 209.683594 207.199219 209.164062 C 207.546875 208.644531 207.941406 208.160156 208.386719 207.71875 C 208.828125 207.277344 209.308594 206.878906 209.832031 206.53125 C 210.351562 206.183594 210.902344 205.890625 211.480469 205.652344 C 212.058594 205.410156 212.65625 205.230469 213.269531 205.109375 C 213.882812 204.988281 214.503906 204.925781 215.128906 204.925781 C 215.757812 204.925781 216.375 204.988281 216.992188 205.109375 C 217.605469 205.230469 218.203125 205.410156 218.78125 205.652344 C 219.359375 205.890625 219.910156 206.183594 220.429688 206.53125 C 220.949219 206.878906 221.429688 207.277344 221.875 207.71875 C 222.316406 208.160156 222.710938 208.644531 223.058594 209.164062 C 223.410156 209.683594 223.703125 210.234375 223.941406 210.8125 C 224.179688 211.390625 224.363281 211.988281 224.484375 212.601562 C 224.605469 213.214844 224.667969 213.835938 224.667969 214.464844 Z M 224.667969 214.464844 " fill-opacity="1" fill-rule="nonzero"/><path fill="#545454" d="M 242.675781 203.054688 C 242.964844 202.691406 243.222656 202.304688 243.441406 201.890625 C 243.660156 201.480469 243.839844 201.050781 243.984375 200.609375 C 244.125 200.164062 244.222656 199.710938 244.285156 199.246094 C 244.34375 198.785156 244.359375 198.320312 244.332031 197.855469 C 244.304688 197.386719 244.238281 196.929688 244.128906 196.476562 C 244.015625 196.023438 243.867188 195.582031 243.675781 195.15625 C 243.484375 194.730469 243.257812 194.324219 242.996094 193.941406 C 242.730469 193.558594 242.433594 193.199219 242.101562 192.871094 L 236.722656 187.492188 C 236.394531 187.160156 236.039062 186.859375 235.652344 186.59375 C 235.269531 186.328125 234.863281 186.101562 234.4375 185.910156 C 234.011719 185.71875 233.574219 185.566406 233.121094 185.457031 C 232.667969 185.347656 232.207031 185.277344 231.738281 185.25 C 231.273438 185.226562 230.808594 185.242188 230.347656 185.300781 C 229.882812 185.359375 229.429688 185.460938 228.984375 185.601562 C 228.539062 185.746094 228.113281 185.925781 227.699219 186.148438 C 227.289062 186.371094 226.902344 186.625 226.539062 186.917969 C 226.484375 186.453125 226.394531 186 226.257812 185.554688 C 226.125 185.109375 225.949219 184.679688 225.738281 184.261719 C 225.523438 183.847656 225.273438 183.457031 224.988281 183.089844 C 224.703125 182.722656 224.386719 182.382812 224.039062 182.070312 C 223.691406 181.761719 223.320312 181.484375 222.921875 181.242188 C 222.523438 181 222.109375 180.792969 221.671875 180.628906 C 221.238281 180.460938 220.789062 180.335938 220.332031 180.253906 C 219.875 180.167969 219.410156 180.125 218.945312 180.128906 L 218.945312 138.160156 C 218.945312 137.65625 218.847656 137.167969 218.65625 136.703125 C 218.460938 136.234375 218.183594 135.820312 217.828125 135.464844 C 217.46875 135.105469 217.058594 134.832031 216.589844 134.636719 C 216.121094 134.441406 215.636719 134.347656 215.128906 134.347656 L 154.089844 134.347656 C 153.582031 134.347656 153.097656 134.441406 152.628906 134.636719 C 152.160156 134.832031 151.75 135.105469 151.390625 135.464844 C 151.03125 135.820312 150.757812 136.234375 150.5625 136.703125 C 150.371094 137.167969 150.273438 137.65625 150.273438 138.160156 L 150.273438 229.722656 C 150.273438 230.230469 150.371094 230.714844 150.5625 231.183594 C 150.757812 231.652344 151.03125 232.0625 151.390625 232.421875 C 151.75 232.777344 152.160156 233.054688 152.628906 233.25 C 153.097656 233.441406 153.582031 233.539062 154.089844 233.539062 L 186.480469 233.539062 C 186.882812 234.480469 187.441406 235.320312 188.15625 236.058594 L 193.535156 241.4375 C 193.867188 241.765625 194.222656 242.066406 194.605469 242.332031 C 194.992188 242.597656 195.394531 242.824219 195.820312 243.015625 C 196.246094 243.207031 196.6875 243.359375 197.140625 243.46875 C 197.59375 243.582031 198.054688 243.648438 198.519531 243.675781 C 198.984375 243.699219 199.449219 243.683594 199.914062 243.625 C 200.378906 243.566406 200.832031 243.464844 201.277344 243.324219 C 201.71875 243.179688 202.148438 243 202.558594 242.777344 C 202.972656 242.558594 203.359375 242.300781 203.722656 242.007812 C 203.773438 242.472656 203.867188 242.925781 204 243.371094 C 204.136719 243.816406 204.308594 244.25 204.523438 244.664062 C 204.738281 245.078125 204.984375 245.46875 205.269531 245.835938 C 205.554688 246.207031 205.871094 246.546875 206.21875 246.855469 C 206.566406 247.167969 206.941406 247.441406 207.339844 247.6875 C 207.734375 247.929688 208.152344 248.132812 208.589844 248.296875 C 209.023438 248.464844 209.46875 248.589844 209.929688 248.671875 C 210.386719 248.757812 210.847656 248.800781 211.316406 248.800781 L 218.945312 248.800781 C 219.410156 248.800781 219.875 248.757812 220.332031 248.671875 C 220.789062 248.589844 221.238281 248.464844 221.671875 248.296875 C 222.109375 248.132812 222.523438 247.929688 222.921875 247.6875 C 223.320312 247.441406 223.691406 247.167969 224.039062 246.855469 C 224.386719 246.546875 224.703125 246.207031 224.988281 245.835938 C 225.273438 245.46875 225.523438 245.078125 225.738281 244.664062 C 225.949219 244.25 226.125 243.816406 226.257812 243.371094 C 226.394531 242.925781 226.484375 242.472656 226.539062 242.007812 C 226.902344 242.300781 227.289062 242.558594 227.699219 242.777344 C 228.113281 243 228.539062 243.179688 228.984375 243.324219 C 229.429688 243.464844 229.882812 243.566406 230.347656 243.625 C 230.808594 243.683594 231.273438 243.699219 231.738281 243.675781 C 232.207031 243.648438 232.667969 243.582031 233.121094 243.46875 C 233.574219 243.359375 234.011719 243.207031 234.4375 243.015625 C 234.863281 242.824219 235.269531 242.597656 235.652344 242.332031 C 236.039062 242.066406 236.394531 241.765625 236.722656 241.4375 L 242.101562 236.058594 C 242.433594 235.726562 242.730469 235.371094 242.996094 234.984375 C 243.257812 234.601562 243.484375 234.195312 243.675781 233.769531 C 243.867188 233.34375 244.015625 232.90625 244.128906 232.453125 C 244.238281 231.996094 244.304688 231.539062 244.332031 231.074219 C 244.359375 230.605469 244.34375 230.144531 244.285156 229.679688 C 244.222656 229.21875 244.125 228.761719 243.984375 228.320312 C 243.839844 227.875 243.660156 227.445312 243.441406 227.035156 C 243.222656 226.625 242.964844 226.234375 242.675781 225.871094 C 243.136719 225.820312 243.59375 225.726562 244.039062 225.589844 C 244.484375 225.457031 244.914062 225.28125 245.328125 225.070312 C 245.742188 224.855469 246.136719 224.605469 246.503906 224.320312 C 246.871094 224.035156 247.210938 223.71875 247.523438 223.375 C 247.832031 223.027344 248.109375 222.652344 248.351562 222.253906 C 248.59375 221.859375 248.800781 221.441406 248.964844 221.003906 C 249.132812 220.570312 249.257812 220.125 249.339844 219.664062 C 249.425781 219.207031 249.464844 218.746094 249.464844 218.277344 L 249.464844 210.648438 C 249.464844 210.183594 249.425781 209.71875 249.339844 209.261719 C 249.257812 208.804688 249.132812 208.355469 248.964844 207.921875 C 248.800781 207.484375 248.59375 207.070312 248.351562 206.671875 C 248.109375 206.273438 247.832031 205.898438 247.523438 205.554688 C 247.210938 205.207031 246.871094 204.890625 246.503906 204.605469 C 246.136719 204.320312 245.742188 204.070312 245.328125 203.855469 C 244.914062 203.644531 244.484375 203.46875 244.039062 203.335938 C 243.59375 203.199219 243.136719 203.105469 242.675781 203.054688 Z M 169.347656 149.605469 C 169.855469 149.605469 170.339844 149.703125 170.808594 149.898438 C 171.277344 150.089844 171.6875 150.367188 172.046875 150.722656 C 172.40625 151.082031 172.679688 151.496094 172.875 151.960938 C 173.066406 152.429688 173.164062 152.914062 173.164062 153.421875 C 173.164062 153.925781 173.066406 154.414062 172.875 154.882812 C 172.679688 155.347656 172.40625 155.761719 172.046875 156.121094 C 171.6875 156.476562 171.277344 156.753906 170.808594 156.945312 C 170.339844 157.140625 169.855469 157.238281 169.347656 157.238281 C 168.84375 157.238281 168.355469 157.140625 167.890625 156.945312 C 167.421875 156.753906 167.007812 156.476562 166.652344 156.121094 C 166.292969 155.761719 166.019531 155.347656 165.824219 154.882812 C 165.628906 154.414062 165.535156 153.925781 165.535156 153.421875 C 165.535156 152.914062 165.628906 152.429688 165.824219 151.960938 C 166.019531 151.496094 166.292969 151.082031 166.652344 150.722656 C 167.007812 150.367188 167.421875 150.089844 167.890625 149.898438 C 168.355469 149.703125 168.84375 149.605469 169.347656 149.605469 Z M 157.902344 164.867188 L 211.316406 164.867188 L 211.316406 172.496094 L 157.902344 172.496094 Z M 173.164062 183.941406 C 173.164062 184.449219 173.066406 184.933594 172.875 185.402344 C 172.679688 185.871094 172.40625 186.28125 172.046875 186.640625 C 171.6875 186.996094 171.277344 187.273438 170.808594 187.46875 C 170.339844 187.660156 169.855469 187.757812 169.347656 187.757812 C 168.84375 187.757812 168.355469 187.660156 167.890625 187.46875 C 167.421875 187.273438 167.007812 186.996094 166.652344 186.640625 C 166.292969 186.28125 166.019531 185.871094 165.824219 185.402344 C 165.628906 184.933594 165.535156 184.449219 165.535156 183.941406 C 165.535156 183.4375 165.628906 182.949219 165.824219 182.484375 C 166.019531 182.015625 166.292969 181.601562 166.652344 181.246094 C 167.007812 180.886719 167.421875 180.613281 167.890625 180.417969 C 168.355469 180.222656 168.84375 180.128906 169.347656 180.128906 C 169.855469 180.128906 170.339844 180.222656 170.808594 180.417969 C 171.277344 180.613281 171.6875 180.886719 172.046875 181.246094 C 172.40625 181.601562 172.679688 182.015625 172.875 182.484375 C 173.066406 182.949219 173.164062 183.4375 173.164062 183.941406 Z M 157.902344 195.386719 L 186.480469 195.386719 C 186.222656 196.015625 186.054688 196.664062 185.96875 197.335938 C 185.886719 198.007812 185.890625 198.675781 185.984375 199.347656 C 186.078125 200.015625 186.257812 200.664062 186.523438 201.285156 C 186.789062 201.910156 187.128906 202.484375 187.546875 203.019531 L 157.902344 203.019531 Z M 169.347656 218.277344 C 168.84375 218.277344 168.355469 218.179688 167.890625 217.988281 C 167.421875 217.792969 167.007812 217.519531 166.652344 217.160156 C 166.292969 216.804688 166.019531 216.390625 165.824219 215.921875 C 165.628906 215.457031 165.535156 214.96875 165.535156 214.464844 C 165.535156 213.957031 165.628906 213.46875 165.824219 213.003906 C 166.019531 212.535156 166.292969 212.125 166.652344 211.765625 C 167.007812 211.40625 167.421875 211.132812 167.890625 210.9375 C 168.355469 210.746094 168.84375 210.648438 169.347656 210.648438 C 169.855469 210.648438 170.339844 210.746094 170.808594 210.9375 C 171.277344 211.132812 171.6875 211.40625 172.046875 211.765625 C 172.40625 212.125 172.679688 212.535156 172.875 213.003906 C 173.066406 213.46875 173.164062 213.957031 173.164062 214.464844 C 173.164062 214.96875 173.066406 215.457031 172.875 215.921875 C 172.679688 216.390625 172.40625 216.804688 172.046875 217.160156 C 171.6875 217.519531 171.277344 217.792969 170.808594 217.988281 C 170.339844 218.179688 169.855469 218.277344 169.347656 218.277344 Z M 241.835938 218.277344 L 231.820312 218.277344 C 231.398438 220.167969 230.671875 221.9375 229.648438 223.582031 L 236.703125 230.640625 L 231.285156 236.058594 L 224.230469 229 C 222.589844 230.015625 220.828125 230.734375 218.945312 231.152344 L 218.945312 241.167969 L 211.316406 241.167969 L 211.316406 231.152344 C 209.425781 230.730469 207.65625 230.003906 206.011719 228.980469 L 198.953125 236.039062 L 193.535156 230.621094 L 200.59375 223.5625 C 199.578125 221.921875 198.859375 220.160156 198.4375 218.277344 L 188.425781 218.277344 L 188.425781 210.648438 L 198.4375 210.648438 C 198.863281 208.757812 199.589844 206.988281 200.613281 205.34375 L 193.554688 198.289062 L 198.972656 192.871094 L 206.03125 199.925781 C 207.671875 198.910156 209.433594 198.191406 211.316406 197.773438 L 211.316406 187.757812 L 218.945312 187.757812 L 218.945312 197.773438 C 220.835938 198.195312 222.605469 198.921875 224.25 199.945312 L 231.304688 192.890625 L 236.722656 198.304688 L 229.664062 205.363281 C 230.683594 207.003906 231.402344 208.765625 231.820312 210.648438 L 241.835938 210.648438 Z M 241.835938 218.277344 " fill-opacity="1" fill-rule="nonzero"/><g clip-path="url(#4b6d51a0c9)"><path fill="#545454" d="M 299.0625 225.910156 L 283.800781 225.910156 C 283.296875 225.910156 282.808594 226.003906 282.34375 226.199219 C 281.875 226.390625 281.460938 226.667969 281.105469 227.027344 C 280.746094 227.382812 280.472656 227.796875 280.277344 228.261719 C 280.082031 228.730469 279.988281 229.21875 279.988281 229.722656 L 279.988281 294.582031 L 272.355469 294.582031 L 272.355469 250.324219 C 272.355469 249.820312 272.257812 249.332031 272.066406 248.863281 C 271.871094 248.398438 271.597656 247.984375 271.238281 247.628906 C 270.882812 247.269531 270.46875 246.992188 270 246.800781 C 269.535156 246.605469 269.046875 246.511719 268.542969 246.511719 L 253.28125 246.511719 C 252.773438 246.511719 252.289062 246.605469 251.820312 246.800781 C 251.355469 246.992188 250.941406 247.269531 250.582031 247.628906 C 250.226562 247.984375 249.949219 248.398438 249.757812 248.863281 C 249.5625 249.332031 249.464844 249.820312 249.464844 250.324219 L 249.464844 294.582031 L 241.835938 294.582031 L 241.835938 264.058594 C 241.835938 263.554688 241.738281 263.066406 241.546875 262.597656 C 241.351562 262.132812 241.074219 261.71875 240.71875 261.363281 C 240.359375 261.003906 239.949219 260.726562 239.480469 260.535156 C 239.011719 260.339844 238.527344 260.246094 238.019531 260.246094 L 222.761719 260.246094 C 222.253906 260.246094 221.769531 260.339844 221.300781 260.535156 C 220.832031 260.726562 220.421875 261.003906 220.0625 261.363281 C 219.703125 261.71875 219.429688 262.132812 219.234375 262.597656 C 219.042969 263.066406 218.945312 263.554688 218.945312 264.058594 L 218.945312 298.394531 C 218.945312 298.902344 219.042969 299.386719 219.234375 299.855469 C 219.429688 300.324219 219.703125 300.734375 220.0625 301.09375 C 220.421875 301.449219 220.832031 301.726562 221.300781 301.921875 C 221.769531 302.113281 222.253906 302.210938 222.761719 302.210938 L 299.0625 302.210938 C 299.566406 302.210938 300.054688 302.113281 300.523438 301.921875 C 300.988281 301.726562 301.402344 301.449219 301.761719 301.09375 C 302.117188 300.734375 302.394531 300.324219 302.585938 299.855469 C 302.78125 299.386719 302.878906 298.902344 302.878906 298.394531 L 302.878906 229.722656 C 302.878906 229.21875 302.78125 228.730469 302.585938 228.261719 C 302.394531 227.796875 302.117188 227.382812 301.761719 227.027344 C 301.402344 226.667969 300.988281 226.390625 300.523438 226.199219 C 300.054688 226.003906 299.566406 225.910156 299.0625 225.910156 Z M 299.0625 225.910156 " fill-opacity="1" fill-rule="nonzero"/></g><path fill="#545454" d="M 188.425781 96.195312 C 189.550781 96.195312 190.65625 96.03125 191.734375 95.703125 C 192.816406 95.378906 193.824219 94.902344 194.761719 94.277344 C 195.703125 93.652344 196.53125 92.90625 197.246094 92.035156 C 197.964844 91.164062 198.542969 90.210938 198.976562 89.171875 C 248.933594 94.453125 287.617188 137.136719 287.617188 187.757812 C 287.617188 188.261719 287.714844 188.75 287.90625 189.21875 C 288.101562 189.683594 288.375 190.097656 288.734375 190.457031 C 289.09375 190.8125 289.503906 191.089844 289.972656 191.28125 C 290.4375 191.476562 290.925781 191.574219 291.433594 191.574219 C 291.9375 191.574219 292.425781 191.476562 292.890625 191.28125 C 293.359375 191.089844 293.773438 190.8125 294.128906 190.457031 C 294.488281 190.097656 294.761719 189.683594 294.957031 189.21875 C 295.148438 188.75 295.246094 188.261719 295.246094 187.757812 C 295.246094 133.097656 253.367188 87.039062 199.355469 81.546875 C 199.15625 80.871094 198.894531 80.21875 198.578125 79.589844 C 198.257812 78.960938 197.882812 78.371094 197.453125 77.8125 C 197.023438 77.253906 196.546875 76.738281 196.023438 76.269531 C 195.496094 75.796875 194.933594 75.378906 194.332031 75.015625 C 193.730469 74.648438 193.101562 74.339844 192.441406 74.089844 C 191.78125 73.84375 191.105469 73.65625 190.414062 73.53125 C 189.71875 73.40625 189.019531 73.347656 188.316406 73.351562 C 187.613281 73.359375 186.914062 73.425781 186.222656 73.5625 C 185.53125 73.695312 184.855469 73.894531 184.203125 74.152344 C 183.546875 74.410156 182.921875 74.726562 182.324219 75.101562 C 181.726562 75.476562 181.171875 75.902344 180.652344 76.378906 C 180.136719 76.859375 179.664062 77.378906 179.246094 77.945312 C 178.824219 78.507812 178.457031 79.105469 178.148438 79.738281 C 177.835938 80.371094 177.585938 81.027344 177.398438 81.707031 C 177.207031 82.382812 177.082031 83.074219 177.019531 83.777344 C 176.960938 84.476562 176.964844 85.179688 177.03125 85.878906 C 177.097656 86.582031 177.230469 87.269531 177.425781 87.945312 C 177.621094 88.625 177.878906 89.277344 178.195312 89.90625 C 178.511719 90.535156 178.882812 91.128906 179.308594 91.691406 C 179.738281 92.25 180.210938 92.769531 180.734375 93.242188 C 181.253906 93.714844 181.816406 94.132812 182.417969 94.503906 C 183.015625 94.871094 183.644531 95.183594 184.304688 95.4375 C 184.960938 95.6875 185.636719 95.878906 186.328125 96.007812 C 187.019531 96.132812 187.71875 96.195312 188.425781 96.195312 Z M 188.425781 96.195312 " fill-opacity="1" fill-rule="nonzero"/><g clip-path="url(#70ba58e241)"><path fill="#545454" d="M 188.425781 279.320312 C 187.296875 279.320312 186.191406 279.484375 185.113281 279.808594 C 184.035156 280.136719 183.023438 280.613281 182.085938 281.238281 C 181.148438 281.863281 180.320312 282.609375 179.601562 283.480469 C 178.882812 284.347656 178.304688 285.304688 177.871094 286.34375 C 127.917969 281.058594 89.230469 238.378906 89.230469 187.757812 C 89.230469 187.25 89.136719 186.765625 88.941406 186.296875 C 88.746094 185.832031 88.472656 185.417969 88.113281 185.058594 C 87.757812 184.703125 87.34375 184.425781 86.875 184.234375 C 86.410156 184.039062 85.921875 183.941406 85.417969 183.941406 C 84.910156 183.941406 84.425781 184.039062 83.957031 184.234375 C 83.488281 184.425781 83.078125 184.703125 82.71875 185.058594 C 82.363281 185.417969 82.085938 185.832031 81.890625 186.296875 C 81.699219 186.765625 81.601562 187.25 81.601562 187.757812 C 81.601562 242.417969 123.480469 288.476562 177.496094 293.96875 C 177.691406 294.644531 177.953125 295.296875 178.273438 295.925781 C 178.59375 296.550781 178.964844 297.144531 179.394531 297.703125 C 179.824219 298.261719 180.300781 298.777344 180.828125 299.246094 C 181.351562 299.71875 181.914062 300.136719 182.515625 300.5 C 183.117188 300.867188 183.75 301.175781 184.40625 301.421875 C 185.066406 301.671875 185.742188 301.859375 186.4375 301.984375 C 187.128906 302.109375 187.828125 302.167969 188.53125 302.164062 C 189.238281 302.15625 189.933594 302.085938 190.628906 301.953125 C 191.320312 301.820312 191.992188 301.621094 192.648438 301.363281 C 193.300781 301.105469 193.929688 300.789062 194.523438 300.414062 C 195.121094 300.039062 195.679688 299.613281 196.195312 299.132812 C 196.714844 298.65625 197.183594 298.136719 197.605469 297.570312 C 198.023438 297.007812 198.390625 296.40625 198.703125 295.777344 C 199.011719 295.144531 199.261719 294.488281 199.453125 293.808594 C 199.640625 293.132812 199.765625 292.441406 199.828125 291.738281 C 199.890625 291.039062 199.886719 290.335938 199.816406 289.636719 C 199.75 288.933594 199.617188 288.246094 199.421875 287.566406 C 199.226562 286.890625 198.96875 286.238281 198.652344 285.609375 C 198.335938 284.980469 197.964844 284.386719 197.539062 283.824219 C 197.113281 283.265625 196.636719 282.746094 196.117188 282.273438 C 195.59375 281.800781 195.03125 281.378906 194.433594 281.011719 C 193.832031 280.644531 193.203125 280.332031 192.546875 280.078125 C 191.886719 279.828125 191.214844 279.636719 190.519531 279.507812 C 189.828125 279.382812 189.128906 279.316406 188.425781 279.320312 Z M 188.425781 279.320312 " fill-opacity="1" fill-rule="nonzero"/></g><path fill="#545454" d="M 139.894531 98.714844 C 143.328125 89.746094 142.835938 82.382812 138.464844 77.996094 C 132.398438 71.929688 120.726562 73.609375 108.328125 81.335938 C 95.890625 73.628906 84.253906 71.949219 78.1875 77.996094 C 73.800781 82.382812 73.304688 89.746094 76.757812 98.714844 C 78.03125 102 79.609375 105.136719 81.488281 108.117188 C 73.78125 120.515625 72.101562 132.152344 78.148438 138.257812 C 80.667969 140.738281 84.101562 141.957031 88.164062 141.957031 C 93.925781 141.957031 100.984375 139.476562 108.269531 134.9375 C 115.59375 139.496094 122.652344 141.976562 128.414062 141.976562 C 132.496094 141.976562 135.929688 140.753906 138.425781 138.277344 C 144.492188 132.171875 142.816406 120.535156 135.089844 108.136719 C 136.996094 105.152344 138.597656 102.011719 139.894531 98.714844 Z M 128.414062 81.886719 C 130.433594 81.886719 132.039062 82.367188 133.027344 83.414062 C 135.089844 85.476562 135.011719 90.167969 132.761719 96.003906 C 132.058594 97.804688 131.246094 99.554688 130.320312 101.25 C 128.09375 98.4375 125.710938 95.769531 123.167969 93.238281 C 120.652344 90.71875 117.988281 88.367188 115.175781 86.179688 C 120.363281 83.320312 125 81.886719 128.414062 81.886719 Z M 83.585938 132.859375 C 80.839844 130.113281 81.867188 123.207031 86.332031 115.003906 C 88.523438 117.828125 90.886719 120.5 93.429688 123.015625 C 95.949219 125.550781 98.621094 127.914062 101.441406 130.113281 C 93.238281 134.574219 86.332031 135.605469 83.585938 132.859375 Z M 93.429688 93.277344 C 90.886719 95.804688 88.503906 98.476562 86.273438 101.289062 C 85.351562 99.589844 84.535156 97.84375 83.832031 96.042969 C 81.601562 90.167969 81.527344 85.476562 83.585938 83.414062 C 84.578125 82.367188 86.179688 81.886719 88.203125 81.886719 C 91.617188 81.886719 96.25 83.320312 101.441406 86.179688 C 98.621094 88.371094 95.949219 90.730469 93.429688 93.257812 Z M 108.308594 111.457031 C 107.800781 111.457031 107.316406 111.359375 106.847656 111.164062 C 106.378906 110.972656 105.96875 110.695312 105.609375 110.339844 C 105.253906 109.980469 104.976562 109.566406 104.78125 109.101562 C 104.589844 108.632812 104.492188 108.144531 104.492188 107.640625 C 104.492188 107.132812 104.589844 106.648438 104.78125 106.179688 C 104.976562 105.714844 105.253906 105.300781 105.609375 104.941406 C 105.96875 104.585938 106.378906 104.308594 106.847656 104.117188 C 107.316406 103.921875 107.800781 103.824219 108.308594 103.824219 C 108.8125 103.824219 109.300781 103.921875 109.765625 104.117188 C 110.234375 104.308594 110.648438 104.585938 111.003906 104.941406 C 111.363281 105.300781 111.636719 105.714844 111.832031 106.179688 C 112.027344 106.648438 112.121094 107.132812 112.121094 107.640625 C 112.121094 108.144531 112.027344 108.632812 111.832031 109.101562 C 111.636719 109.566406 111.363281 109.980469 111.003906 110.339844 C 110.648438 110.695312 110.234375 110.972656 109.765625 111.164062 C 109.300781 111.359375 108.8125 111.457031 108.308594 111.457031 Z M 133.027344 132.859375 C 130.28125 135.605469 123.378906 134.574219 115.175781 130.113281 C 117.996094 127.914062 120.664062 125.550781 123.1875 123.015625 C 125.726562 120.5 128.09375 117.828125 130.28125 115.003906 C 134.746094 123.207031 135.777344 130.113281 133.027344 132.859375 Z M 133.027344 132.859375 " fill-opacity="1" fill-rule="nonzero"/></svg>