<svg xmlns="http://www.w3.org/2000/svg" xmlns:xlink="http://www.w3.org/1999/xlink" width="500" zoomAndPan="magnify" viewBox="0 0 375 374.999991" height="500" preserveAspectRatio="xMidYMid meet" version="1.0"><defs><clipPath id="9357cb2d16"><path d="M 70.757812 94.742188 L 304.007812 94.742188 L 304.007812 279.992188 L 70.757812 279.992188 Z M 70.757812 94.742188 " clip-rule="nonzero"/></clipPath></defs><rect x="-37.5" width="450" fill="#ffffff" y="-37.499999" height="449.999989" fill-opacity="1"/><rect x="-37.5" width="450" fill="#ffffff" y="-37.499999" height="449.999989" fill-opacity="1"/><g clip-path="url(#9357cb2d16)"><path fill="#545454" d="M 300.242188 117.097656 L 279.511719 117.097656 L 279.511719 98.8125 C 279.511719 98.292969 279.414062 97.789062 279.214844 97.308594 C 279.015625 96.828125 278.730469 96.402344 278.363281 96.035156 C 277.992188 95.664062 277.570312 95.382812 277.085938 95.183594 C 276.605469 94.980469 276.105469 94.882812 275.582031 94.882812 L 74.6875 94.882812 C 74.429688 94.878906 74.171875 94.898438 73.917969 94.949219 C 73.664062 94.996094 73.414062 95.066406 73.175781 95.164062 C 72.933594 95.261719 72.707031 95.382812 72.492188 95.527344 C 72.273438 95.667969 72.074219 95.832031 71.890625 96.015625 C 71.707031 96.199219 71.546875 96.398438 71.402344 96.613281 C 71.257812 96.832031 71.136719 97.058594 71.039062 97.300781 C 70.945312 97.539062 70.871094 97.789062 70.824219 98.042969 C 70.777344 98.296875 70.753906 98.554688 70.757812 98.8125 L 70.757812 253.667969 C 70.757812 254.1875 70.859375 254.691406 71.058594 255.171875 C 71.257812 255.652344 71.539062 256.078125 71.910156 256.449219 C 72.277344 256.816406 72.703125 257.101562 73.183594 257.300781 C 73.667969 257.5 74.167969 257.597656 74.6875 257.597656 L 118.40625 257.597656 L 118.40625 275.882812 C 118.40625 276.40625 118.503906 276.90625 118.703125 277.386719 C 118.902344 277.871094 119.1875 278.292969 119.558594 278.664062 C 119.925781 279.03125 120.351562 279.316406 120.832031 279.515625 C 121.3125 279.714844 121.816406 279.8125 122.335938 279.8125 L 300.242188 279.8125 C 300.761719 279.8125 301.261719 279.714844 301.746094 279.515625 C 302.226562 279.316406 302.652344 279.03125 303.019531 278.664062 C 303.386719 278.292969 303.671875 277.871094 303.871094 277.386719 C 304.070312 276.90625 304.171875 276.40625 304.171875 275.882812 L 304.171875 121.027344 C 304.164062 120.511719 304.058594 120.011719 303.855469 119.535156 C 303.65625 119.054688 303.371094 118.632812 303.003906 118.265625 C 302.636719 117.898438 302.214844 117.613281 301.734375 117.414062 C 301.257812 117.210938 300.757812 117.105469 300.242188 117.097656 Z M 279.511719 143.246094 L 279.511719 124.960938 L 296.308594 124.960938 L 296.308594 143.246094 Z M 279.511719 253.609375 L 279.511719 151.046875 L 296.308594 151.046875 L 296.308594 271.894531 L 126.386719 271.894531 L 126.386719 257.539062 L 275.582031 257.539062 C 276.101562 257.53125 276.601562 257.425781 277.078125 257.222656 C 277.554688 257.023438 277.976562 256.738281 278.34375 256.371094 C 278.710938 256.003906 278.996094 255.582031 279.199219 255.101562 C 279.402344 254.625 279.507812 254.128906 279.511719 253.609375 Z M 271.652344 128.535156 L 120.015625 128.535156 C 119.75 128.535156 119.488281 128.558594 119.230469 128.609375 C 118.96875 128.664062 118.71875 128.738281 118.476562 128.839844 C 118.230469 128.941406 118 129.0625 117.78125 129.210938 C 117.5625 129.359375 117.359375 129.523438 117.171875 129.710938 C 116.984375 129.898438 116.816406 130.101562 116.671875 130.320312 C 116.523438 130.539062 116.402344 130.769531 116.300781 131.015625 C 116.199219 131.257812 116.121094 131.511719 116.070312 131.769531 C 116.019531 132.027344 115.992188 132.289062 115.992188 132.554688 C 115.992188 132.816406 116.019531 133.078125 116.070312 133.339844 C 116.121094 133.597656 116.199219 133.847656 116.300781 134.09375 C 116.402344 134.335938 116.523438 134.566406 116.671875 134.789062 C 116.816406 135.007812 116.984375 135.210938 117.171875 135.398438 C 117.359375 135.582031 117.5625 135.75 117.78125 135.898438 C 118 136.042969 118.230469 136.167969 118.476562 136.269531 C 118.71875 136.367188 118.96875 136.445312 119.230469 136.496094 C 119.488281 136.546875 119.75 136.574219 120.015625 136.574219 L 271.652344 136.574219 L 271.652344 249.738281 L 78.621094 249.738281 L 78.621094 102.746094 L 271.652344 102.746094 Z M 271.652344 128.535156 " fill-opacity="1" fill-rule="nonzero"/></g><path fill="#545454" d="M 90.652344 184.222656 L 110.664062 184.222656 C 111.183594 184.222656 111.683594 184.121094 112.164062 183.921875 C 112.644531 183.722656 113.070312 183.4375 113.4375 183.066406 C 113.808594 182.699219 114.089844 182.273438 114.289062 181.792969 C 114.488281 181.3125 114.589844 180.8125 114.589844 180.289062 C 114.589844 179.769531 114.488281 179.269531 114.289062 178.789062 C 114.089844 178.304688 113.808594 177.882812 113.4375 177.511719 C 113.070312 177.144531 112.644531 176.859375 112.164062 176.660156 C 111.683594 176.460938 111.183594 176.359375 110.664062 176.359375 L 90.652344 176.359375 C 90.128906 176.359375 89.628906 176.457031 89.144531 176.65625 C 88.664062 176.855469 88.238281 177.140625 87.867188 177.507812 C 87.5 177.878906 87.214844 178.304688 87.015625 178.785156 C 86.816406 179.265625 86.714844 179.769531 86.714844 180.289062 C 86.714844 180.8125 86.816406 181.3125 87.015625 181.796875 C 87.214844 182.277344 87.5 182.703125 87.867188 183.070312 C 88.238281 183.441406 88.664062 183.726562 89.144531 183.925781 C 89.628906 184.121094 90.128906 184.222656 90.652344 184.222656 Z M 90.652344 184.222656 " fill-opacity="1" fill-rule="nonzero"/><path fill="#545454" d="M 151.222656 121.089844 L 188.625 121.089844 C 188.902344 121.121094 189.179688 121.128906 189.457031 121.101562 C 189.734375 121.078125 190.003906 121.023438 190.273438 120.941406 C 190.539062 120.859375 190.792969 120.75 191.035156 120.613281 C 191.277344 120.476562 191.503906 120.316406 191.710938 120.132812 C 191.921875 119.949219 192.109375 119.742188 192.273438 119.519531 C 192.4375 119.296875 192.578125 119.058594 192.691406 118.804688 C 192.808594 118.550781 192.894531 118.285156 192.953125 118.011719 C 193.011719 117.742188 193.039062 117.464844 193.039062 117.1875 C 193.039062 116.910156 193.011719 116.632812 192.953125 116.363281 C 192.894531 116.089844 192.808594 115.824219 192.691406 115.570312 C 192.578125 115.316406 192.4375 115.078125 192.273438 114.855469 C 192.109375 114.628906 191.921875 114.425781 191.710938 114.242188 C 191.503906 114.058594 191.277344 113.898438 191.035156 113.761719 C 190.792969 113.625 190.539062 113.515625 190.273438 113.433594 C 190.003906 113.351562 189.734375 113.296875 189.457031 113.273438 C 189.179688 113.246094 188.902344 113.253906 188.625 113.285156 L 151.222656 113.285156 C 150.945312 113.253906 150.667969 113.246094 150.390625 113.273438 C 150.113281 113.296875 149.84375 113.351562 149.578125 113.433594 C 149.3125 113.515625 149.054688 113.625 148.8125 113.761719 C 148.570312 113.898438 148.34375 114.058594 148.136719 114.242188 C 147.929688 114.425781 147.742188 114.628906 147.574219 114.855469 C 147.410156 115.078125 147.269531 115.316406 147.15625 115.570312 C 147.042969 115.824219 146.957031 116.089844 146.898438 116.363281 C 146.839844 116.632812 146.808594 116.910156 146.808594 117.1875 C 146.808594 117.464844 146.839844 117.742188 146.898438 118.011719 C 146.957031 118.285156 147.042969 118.550781 147.15625 118.804688 C 147.269531 119.058594 147.410156 119.296875 147.574219 119.519531 C 147.742188 119.742188 147.929688 119.949219 148.136719 120.132812 C 148.34375 120.316406 148.570312 120.476562 148.8125 120.613281 C 149.054688 120.75 149.3125 120.859375 149.578125 120.941406 C 149.84375 121.023438 150.113281 121.078125 150.390625 121.101562 C 150.667969 121.128906 150.945312 121.121094 151.222656 121.089844 Z M 151.222656 121.089844 " fill-opacity="1" fill-rule="nonzero"/><path fill="#545454" d="M 209.828125 121.089844 L 219.65625 121.089844 C 219.933594 121.121094 220.210938 121.128906 220.488281 121.101562 C 220.765625 121.078125 221.035156 121.023438 221.300781 120.941406 C 221.566406 120.859375 221.824219 120.75 222.066406 120.613281 C 222.308594 120.476562 222.535156 120.316406 222.742188 120.132812 C 222.953125 119.949219 223.136719 119.742188 223.304688 119.519531 C 223.46875 119.296875 223.609375 119.058594 223.722656 118.804688 C 223.835938 118.550781 223.925781 118.285156 223.984375 118.011719 C 224.042969 117.742188 224.070312 117.464844 224.070312 117.1875 C 224.070312 116.910156 224.042969 116.632812 223.984375 116.363281 C 223.925781 116.089844 223.835938 115.824219 223.722656 115.570312 C 223.609375 115.316406 223.46875 115.078125 223.304688 114.855469 C 223.136719 114.628906 222.953125 114.425781 222.742188 114.242188 C 222.535156 114.058594 222.308594 113.898438 222.066406 113.761719 C 221.824219 113.625 221.566406 113.515625 221.300781 113.433594 C 221.035156 113.351562 220.765625 113.296875 220.488281 113.273438 C 220.210938 113.246094 219.933594 113.253906 219.65625 113.285156 L 209.828125 113.285156 C 209.554688 113.253906 209.277344 113.246094 209 113.273438 C 208.722656 113.296875 208.449219 113.351562 208.183594 113.433594 C 207.917969 113.515625 207.664062 113.625 207.421875 113.761719 C 207.175781 113.898438 206.953125 114.058594 206.742188 114.242188 C 206.535156 114.425781 206.347656 114.628906 206.183594 114.855469 C 206.015625 115.078125 205.878906 115.316406 205.761719 115.570312 C 205.648438 115.824219 205.5625 116.089844 205.503906 116.363281 C 205.445312 116.632812 205.414062 116.910156 205.414062 117.1875 C 205.414062 117.464844 205.445312 117.742188 205.503906 118.011719 C 205.5625 118.285156 205.648438 118.550781 205.761719 118.804688 C 205.878906 119.058594 206.015625 119.296875 206.183594 119.519531 C 206.347656 119.742188 206.535156 119.949219 206.742188 120.132812 C 206.953125 120.316406 207.175781 120.476562 207.421875 120.613281 C 207.664062 120.75 207.917969 120.859375 208.183594 120.941406 C 208.449219 121.023438 208.722656 121.078125 209 121.101562 C 209.277344 121.128906 209.554688 121.121094 209.828125 121.089844 Z M 209.828125 121.089844 " fill-opacity="1" fill-rule="nonzero"/><path fill="#545454" d="M 90.652344 215.609375 L 110.664062 215.609375 C 110.957031 215.691406 111.253906 215.742188 111.558594 215.753906 C 111.859375 215.769531 112.160156 215.746094 112.460938 215.691406 C 112.757812 215.632812 113.046875 215.546875 113.324219 215.421875 C 113.601562 215.300781 113.863281 215.144531 114.105469 214.964844 C 114.347656 214.78125 114.566406 214.570312 114.757812 214.335938 C 114.953125 214.101562 115.117188 213.851562 115.253906 213.578125 C 115.390625 213.304688 115.492188 213.023438 115.5625 212.726562 C 115.628906 212.429688 115.664062 212.132812 115.664062 211.828125 C 115.664062 211.523438 115.628906 211.222656 115.5625 210.929688 C 115.492188 210.632812 115.390625 210.347656 115.253906 210.074219 C 115.117188 209.804688 114.953125 209.550781 114.757812 209.316406 C 114.566406 209.082031 114.347656 208.875 114.105469 208.691406 C 113.863281 208.507812 113.601562 208.355469 113.324219 208.230469 C 113.046875 208.109375 112.757812 208.019531 112.460938 207.964844 C 112.160156 207.90625 111.859375 207.886719 111.558594 207.902344 C 111.253906 207.914062 110.957031 207.960938 110.664062 208.046875 L 90.652344 208.046875 C 90.128906 208.046875 89.628906 208.144531 89.148438 208.34375 C 88.664062 208.542969 88.238281 208.828125 87.871094 209.195312 C 87.503906 209.566406 87.21875 209.992188 87.019531 210.472656 C 86.820312 210.953125 86.71875 211.453125 86.71875 211.976562 C 86.71875 212.496094 86.820312 213 87.019531 213.480469 C 87.21875 213.960938 87.503906 214.386719 87.871094 214.753906 C 88.238281 215.125 88.664062 215.410156 89.148438 215.609375 C 89.628906 215.808594 90.128906 215.90625 90.652344 215.90625 Z M 90.652344 215.609375 " fill-opacity="1" fill-rule="nonzero"/><path fill="#545454" d="M 90.652344 160.398438 L 135.023438 160.398438 C 135.542969 160.398438 136.042969 160.296875 136.527344 160.097656 C 137.007812 159.898438 137.429688 159.613281 137.800781 159.246094 C 138.167969 158.875 138.453125 158.453125 138.652344 157.96875 C 138.851562 157.488281 138.949219 156.988281 138.949219 156.46875 C 138.949219 155.945312 138.851562 155.445312 138.652344 154.964844 C 138.453125 154.480469 138.167969 154.058594 137.800781 153.6875 C 137.429688 153.320312 137.007812 153.035156 136.527344 152.835938 C 136.042969 152.636719 135.542969 152.535156 135.023438 152.535156 L 90.652344 152.535156 C 90.128906 152.535156 89.628906 152.636719 89.144531 152.835938 C 88.664062 153.035156 88.238281 153.316406 87.867188 153.6875 C 87.5 154.054688 87.214844 154.480469 87.015625 154.960938 C 86.816406 155.445312 86.714844 155.945312 86.714844 156.46875 C 86.714844 156.988281 86.816406 157.488281 87.015625 157.972656 C 87.214844 158.453125 87.5 158.878906 87.867188 159.246094 C 88.238281 159.617188 88.664062 159.902344 89.144531 160.101562 C 89.628906 160.300781 90.128906 160.398438 90.652344 160.398438 Z M 90.652344 160.398438 " fill-opacity="1" fill-rule="nonzero"/><path fill="#545454" d="M 238.417969 121.089844 L 252.652344 121.089844 C 252.929688 121.121094 253.207031 121.128906 253.484375 121.101562 C 253.761719 121.078125 254.03125 121.023438 254.296875 120.941406 C 254.5625 120.859375 254.820312 120.75 255.0625 120.613281 C 255.304688 120.476562 255.53125 120.316406 255.738281 120.132812 C 255.945312 119.949219 256.132812 119.742188 256.300781 119.519531 C 256.464844 119.296875 256.605469 119.058594 256.71875 118.804688 C 256.832031 118.550781 256.917969 118.285156 256.976562 118.011719 C 257.035156 117.742188 257.066406 117.464844 257.066406 117.1875 C 257.066406 116.910156 257.035156 116.632812 256.976562 116.363281 C 256.917969 116.089844 256.832031 115.824219 256.71875 115.570312 C 256.605469 115.316406 256.464844 115.078125 256.300781 114.855469 C 256.132812 114.628906 255.945312 114.425781 255.738281 114.242188 C 255.53125 114.058594 255.304688 113.898438 255.0625 113.761719 C 254.820312 113.625 254.5625 113.515625 254.296875 113.433594 C 254.03125 113.351562 253.761719 113.296875 253.484375 113.273438 C 253.207031 113.246094 252.929688 113.253906 252.652344 113.285156 L 238.417969 113.285156 C 238.140625 113.253906 237.863281 113.246094 237.585938 113.273438 C 237.308594 113.296875 237.039062 113.351562 236.773438 113.433594 C 236.503906 113.515625 236.25 113.625 236.007812 113.761719 C 235.765625 113.898438 235.539062 114.058594 235.332031 114.242188 C 235.121094 114.425781 234.9375 114.628906 234.769531 114.855469 C 234.605469 115.078125 234.464844 115.316406 234.351562 115.570312 C 234.238281 115.824219 234.148438 116.089844 234.089844 116.363281 C 234.03125 116.632812 234.003906 116.910156 234.003906 117.1875 C 234.003906 117.464844 234.03125 117.742188 234.089844 118.011719 C 234.148438 118.285156 234.238281 118.550781 234.351562 118.804688 C 234.464844 119.058594 234.605469 119.296875 234.769531 119.519531 C 234.9375 119.742188 235.121094 119.949219 235.332031 120.132812 C 235.539062 120.316406 235.765625 120.476562 236.007812 120.613281 C 236.25 120.75 236.503906 120.859375 236.773438 120.941406 C 237.039062 121.023438 237.308594 121.078125 237.585938 121.101562 C 237.863281 121.128906 238.140625 121.121094 238.417969 121.089844 Z M 238.417969 121.089844 " fill-opacity="1" fill-rule="nonzero"/><path fill="#545454" d="M 122.21875 197.382812 C 122.21875 198.375 122.269531 199.363281 122.367188 200.347656 C 122.46875 201.332031 122.613281 202.3125 122.808594 203.28125 C 123.003906 204.253906 123.246094 205.214844 123.535156 206.160156 C 123.820312 207.109375 124.15625 208.039062 124.535156 208.953125 C 124.917969 209.867188 125.339844 210.761719 125.808594 211.636719 C 126.273438 212.507812 126.785156 213.355469 127.335938 214.179688 C 127.886719 215.003906 128.476562 215.796875 129.101562 216.5625 C 129.730469 217.328125 130.394531 218.0625 131.097656 218.761719 C 131.796875 219.460938 132.53125 220.125 133.296875 220.753906 C 134.0625 221.382812 134.855469 221.972656 135.679688 222.523438 C 136.5 223.074219 137.347656 223.582031 138.222656 224.050781 C 139.097656 224.519531 139.988281 224.941406 140.902344 225.320312 C 141.820312 225.703125 142.75 226.035156 143.699219 226.324219 C 144.644531 226.613281 145.605469 226.855469 146.574219 227.050781 C 147.546875 227.242188 148.523438 227.390625 149.511719 227.488281 C 150.496094 227.589844 151.484375 227.636719 152.472656 227.640625 L 226.207031 227.640625 C 227.101562 227.683594 227.996094 227.679688 228.886719 227.632812 C 229.78125 227.582031 230.667969 227.492188 231.550781 227.351562 C 232.4375 227.214844 233.308594 227.03125 234.175781 226.804688 C 235.039062 226.578125 235.890625 226.308594 236.730469 225.996094 C 237.566406 225.683594 238.386719 225.332031 239.191406 224.933594 C 239.992188 224.539062 240.773438 224.105469 241.53125 223.628906 C 242.289062 223.15625 243.019531 222.644531 243.726562 222.09375 C 244.433594 221.546875 245.109375 220.964844 245.753906 220.347656 C 246.402344 219.730469 247.015625 219.082031 247.597656 218.402344 C 248.179688 217.722656 248.726562 217.015625 249.234375 216.28125 C 249.746094 215.546875 250.21875 214.789062 250.652344 214.003906 C 251.082031 213.222656 251.476562 212.421875 251.828125 211.597656 C 252.179688 210.777344 252.488281 209.9375 252.757812 209.085938 C 253.023438 208.230469 253.246094 207.367188 253.425781 206.492188 C 253.605469 205.613281 253.742188 204.730469 253.832031 203.84375 C 253.921875 202.953125 253.96875 202.058594 253.96875 201.167969 C 253.96875 200.273438 253.921875 199.378906 253.832031 198.488281 C 253.742188 197.601562 253.605469 196.71875 253.425781 195.839844 C 253.246094 194.964844 253.023438 194.101562 252.757812 193.246094 C 252.488281 192.394531 252.179688 191.554688 251.828125 190.734375 C 251.476562 189.910156 251.082031 189.109375 250.652344 188.328125 C 250.21875 187.546875 249.746094 186.785156 249.234375 186.050781 C 248.726562 185.316406 248.179688 184.609375 247.597656 183.929688 C 247.015625 183.25 246.402344 182.601562 245.753906 181.984375 C 245.109375 181.367188 244.433594 180.785156 243.726562 180.238281 C 243.019531 179.6875 242.289062 179.175781 241.53125 178.703125 C 240.769531 178.226562 239.992188 177.792969 239.191406 177.398438 C 238.386719 177 237.566406 176.648438 236.730469 176.335938 C 235.890625 176.023438 235.039062 175.753906 234.175781 175.527344 C 233.308594 175.300781 232.4375 175.117188 231.550781 174.980469 C 230.667969 174.839844 229.78125 174.75 228.886719 174.699219 C 227.996094 174.652344 227.101562 174.648438 226.207031 174.691406 L 223.46875 174.691406 C 223.261719 173.714844 223.015625 172.746094 222.726562 171.789062 C 222.4375 170.832031 222.109375 169.886719 221.738281 168.957031 C 221.371094 168.03125 220.960938 167.117188 220.515625 166.222656 C 220.066406 165.328125 219.582031 164.457031 219.058594 163.601562 C 218.535156 162.75 217.980469 161.921875 217.386719 161.117188 C 216.792969 160.3125 216.164062 159.535156 215.503906 158.78125 C 214.847656 158.03125 214.15625 157.308594 213.433594 156.617188 C 212.710938 155.925781 211.960938 155.265625 211.183594 154.640625 C 210.40625 154.011719 209.601562 153.417969 208.773438 152.859375 C 207.941406 152.300781 207.089844 151.777344 206.21875 151.292969 C 205.34375 150.804688 204.449219 150.359375 203.539062 149.949219 C 202.625 149.539062 201.699219 149.167969 200.753906 148.839844 C 199.808594 148.507812 198.855469 148.21875 197.886719 147.972656 C 196.917969 147.722656 195.9375 147.519531 194.953125 147.351562 C 193.964844 147.1875 192.976562 147.066406 191.976562 146.988281 C 190.980469 146.910156 189.984375 146.871094 188.984375 146.878906 C 187.3125 146.878906 185.652344 147 184 147.238281 C 182.34375 147.476562 180.71875 147.828125 179.113281 148.296875 C 177.511719 148.765625 175.949219 149.34375 174.425781 150.035156 C 172.90625 150.726562 171.441406 151.519531 170.03125 152.414062 C 168.625 153.3125 167.285156 154.304688 166.015625 155.390625 C 164.75 156.476562 163.5625 157.648438 162.460938 158.902344 C 161.359375 160.160156 160.347656 161.484375 159.433594 162.882812 C 158.519531 164.28125 157.707031 165.734375 157 167.246094 C 155.5 167.007812 153.992188 166.890625 152.472656 166.890625 C 151.476562 166.890625 150.484375 166.941406 149.496094 167.042969 C 148.503906 167.140625 147.523438 167.289062 146.546875 167.488281 C 145.570312 167.683594 144.605469 167.925781 143.65625 168.21875 C 142.703125 168.511719 141.769531 168.847656 140.847656 169.230469 C 139.929688 169.613281 139.035156 170.042969 138.15625 170.515625 C 137.28125 170.988281 136.429688 171.5 135.605469 172.058594 C 134.777344 172.613281 133.980469 173.207031 133.214844 173.84375 C 132.449219 174.476562 131.714844 175.148438 131.011719 175.851562 C 130.3125 176.558594 129.648438 177.300781 129.019531 178.070312 C 128.390625 178.84375 127.800781 179.644531 127.25 180.472656 C 126.703125 181.304688 126.195312 182.160156 125.730469 183.039062 C 125.265625 183.917969 124.84375 184.820312 124.46875 185.742188 C 124.089844 186.664062 123.761719 187.601562 123.476562 188.554688 C 123.191406 189.507812 122.957031 190.472656 122.769531 191.453125 C 122.578125 192.429688 122.4375 193.414062 122.347656 194.40625 C 122.253906 195.394531 122.210938 196.390625 122.21875 197.382812 Z M 159.441406 175.882812 C 159.847656 175.882812 160.242188 175.820312 160.628906 175.695312 C 161.015625 175.570312 161.371094 175.394531 161.703125 175.15625 C 162.035156 174.921875 162.320312 174.644531 162.566406 174.320312 C 162.808594 173.996094 163 173.644531 163.132812 173.261719 C 163.644531 171.792969 164.273438 170.375 165.023438 169.007812 C 165.773438 167.644531 166.632812 166.355469 167.605469 165.136719 C 168.574219 163.917969 169.640625 162.792969 170.804688 161.757812 C 171.964844 160.71875 173.207031 159.789062 174.527344 158.964844 C 175.847656 158.144531 177.230469 157.4375 178.671875 156.847656 C 180.113281 156.257812 181.59375 155.796875 183.113281 155.460938 C 184.636719 155.125 186.171875 154.917969 187.726562 154.847656 C 189.28125 154.773438 190.832031 154.828125 192.378906 155.019531 C 193.921875 155.210938 195.441406 155.53125 196.933594 155.980469 C 198.421875 156.429688 199.867188 157 201.257812 157.695312 C 202.652344 158.390625 203.976562 159.199219 205.230469 160.121094 C 206.488281 161.039062 207.65625 162.0625 208.738281 163.179688 C 209.820312 164.300781 210.796875 165.503906 211.675781 166.789062 C 212.550781 168.078125 213.3125 169.429688 213.957031 170.847656 C 214.601562 172.261719 215.125 173.722656 215.523438 175.230469 C 215.917969 176.734375 216.183594 178.261719 216.320312 179.8125 C 216.371094 180.390625 216.542969 180.929688 216.835938 181.429688 C 217.125 181.929688 217.511719 182.34375 217.988281 182.671875 C 218.664062 183.160156 219.417969 183.398438 220.253906 183.386719 L 221.265625 183.386719 C 222.878906 182.917969 224.527344 182.679688 226.207031 182.671875 C 226.820312 182.671875 227.425781 182.703125 228.035156 182.761719 C 228.644531 182.824219 229.246094 182.910156 229.84375 183.03125 C 230.445312 183.148438 231.035156 183.296875 231.621094 183.476562 C 232.203125 183.652344 232.777344 183.859375 233.34375 184.09375 C 233.90625 184.324219 234.457031 184.585938 234.996094 184.875 C 235.535156 185.160156 236.058594 185.476562 236.566406 185.816406 C 237.074219 186.152344 237.5625 186.515625 238.035156 186.90625 C 238.507812 187.292969 238.957031 187.703125 239.390625 188.132812 C 239.820312 188.566406 240.230469 189.015625 240.617188 189.488281 C 241.003906 189.960938 241.367188 190.449219 241.707031 190.957031 C 242.046875 191.464844 242.359375 191.988281 242.648438 192.527344 C 242.9375 193.066406 243.199219 193.617188 243.429688 194.179688 C 243.664062 194.746094 243.871094 195.320312 244.046875 195.902344 C 244.222656 196.488281 244.371094 197.078125 244.492188 197.679688 C 244.609375 198.277344 244.699219 198.878906 244.761719 199.488281 C 244.820312 200.09375 244.851562 200.703125 244.851562 201.316406 C 244.851562 201.925781 244.820312 202.535156 244.761719 203.140625 C 244.699219 203.75 244.609375 204.351562 244.492188 204.953125 C 244.371094 205.550781 244.222656 206.140625 244.046875 206.726562 C 243.871094 207.3125 243.664062 207.886719 243.429688 208.449219 C 243.199219 209.011719 242.9375 209.5625 242.648438 210.101562 C 242.359375 210.640625 242.046875 211.164062 241.707031 211.671875 C 241.367188 212.179688 241.003906 212.667969 240.617188 213.140625 C 240.230469 213.613281 239.820312 214.066406 239.390625 214.496094 C 238.957031 214.929688 238.507812 215.339844 238.035156 215.726562 C 237.5625 216.113281 237.074219 216.476562 236.566406 216.816406 C 236.058594 217.15625 235.535156 217.46875 234.996094 217.757812 C 234.457031 218.042969 233.90625 218.304688 233.34375 218.539062 C 232.777344 218.773438 232.203125 218.976562 231.621094 219.15625 C 231.035156 219.332031 230.445312 219.480469 229.84375 219.597656 C 229.246094 219.71875 228.644531 219.808594 228.035156 219.867188 C 227.425781 219.925781 226.820312 219.957031 226.207031 219.957031 L 152.472656 219.957031 C 151.675781 219.953125 150.882812 219.90625 150.09375 219.820312 C 149.300781 219.730469 148.519531 219.601562 147.742188 219.429688 C 146.964844 219.257812 146.199219 219.042969 145.441406 218.792969 C 144.6875 218.539062 143.949219 218.246094 143.226562 217.914062 C 142.5 217.582031 141.796875 217.210938 141.113281 216.804688 C 140.429688 216.398438 139.769531 215.957031 139.132812 215.480469 C 138.496094 215.003906 137.882812 214.496094 137.300781 213.953125 C 136.71875 213.410156 136.164062 212.839844 135.644531 212.238281 C 135.121094 211.636719 134.632812 211.011719 134.175781 210.359375 C 133.71875 209.707031 133.300781 209.03125 132.914062 208.335938 C 132.53125 207.636719 132.1875 206.921875 131.878906 206.1875 C 131.570312 205.453125 131.300781 204.707031 131.074219 203.941406 C 130.847656 203.179688 130.660156 202.40625 130.511719 201.625 C 130.367188 200.84375 130.261719 200.054688 130.199219 199.261719 C 130.136719 198.46875 130.117188 197.671875 130.140625 196.878906 C 130.160156 196.082031 130.226562 195.289062 130.332031 194.5 C 130.4375 193.710938 130.585938 192.929688 130.777344 192.15625 C 130.964844 191.382812 131.195312 190.625 131.464844 189.875 C 131.738281 189.125 132.046875 188.394531 132.394531 187.679688 C 132.742188 186.960938 133.128906 186.265625 133.550781 185.59375 C 133.972656 184.917969 134.429688 184.265625 134.921875 183.640625 C 135.414062 183.015625 135.933594 182.417969 136.492188 181.847656 C 137.046875 181.277344 137.628906 180.734375 138.242188 180.226562 C 138.855469 179.71875 139.492188 179.246094 140.15625 178.804688 C 140.816406 178.363281 141.503906 177.960938 142.207031 177.589844 C 142.914062 177.222656 143.636719 176.894531 144.378906 176.601562 C 145.117188 176.3125 145.875 176.0625 146.640625 175.851562 C 147.410156 175.640625 148.183594 175.46875 148.96875 175.34375 C 149.757812 175.214844 150.546875 175.128906 151.339844 175.085938 C 152.136719 175.039062 152.929688 175.039062 153.726562 175.078125 C 154.519531 175.117188 155.3125 175.203125 156.097656 175.324219 C 156.882812 175.449219 157.660156 175.617188 158.429688 175.824219 Z M 159.441406 175.882812 " fill-opacity="1" fill-rule="nonzero"/></svg>