<svg xmlns="http://www.w3.org/2000/svg" xmlns:xlink="http://www.w3.org/1999/xlink" width="500" zoomAndPan="magnify" viewBox="0 0 375 374.999991" height="500" preserveAspectRatio="xMidYMid meet" version="1.0"><defs><clipPath id="31b6065353"><path d="M 71.199219 113.863281 L 296 113.863281 L 296 280.363281 L 71.199219 280.363281 Z M 71.199219 113.863281 " clip-rule="nonzero"/></clipPath><clipPath id="7989d8ecf7"><path d="M 250 155 L 337.449219 155 L 337.449219 243 L 250 243 Z M 250 155 " clip-rule="nonzero"/></clipPath></defs><rect x="-37.5" width="450" fill="#ffffff" y="-37.499999" height="449.999989" fill-opacity="1"/><rect x="-37.5" width="450" fill="#ffffff" y="-37.499999" height="449.999989" fill-opacity="1"/><path fill="#545454" d="M 166.898438 238.6875 C 164.613281 238.6875 162.738281 240.558594 162.738281 242.847656 C 162.738281 245.136719 164.613281 247.007812 166.898438 247.007812 L 200.1875 247.007812 C 202.472656 247.007812 204.347656 245.136719 204.347656 242.847656 C 204.347656 240.558594 202.472656 238.6875 200.1875 238.6875 Z M 166.898438 238.6875 " fill-opacity="1" fill-rule="nonzero"/><path fill="#545454" d="M 108.859375 241.597656 C 108.859375 242.066406 108.769531 242.519531 108.589844 242.953125 C 108.410156 243.386719 108.152344 243.769531 107.820312 244.101562 C 107.492188 244.429688 107.109375 244.6875 106.675781 244.867188 C 106.242188 245.046875 105.789062 245.136719 105.320312 245.136719 C 104.851562 245.136719 104.402344 245.046875 103.96875 244.867188 C 103.535156 244.6875 103.152344 244.429688 102.820312 244.101562 C 102.488281 243.769531 102.234375 243.386719 102.054688 242.953125 C 101.875 242.519531 101.785156 242.066406 101.785156 241.597656 C 101.785156 241.128906 101.875 240.679688 102.054688 240.246094 C 102.234375 239.8125 102.488281 239.429688 102.820312 239.097656 C 103.152344 238.765625 103.535156 238.511719 103.96875 238.332031 C 104.402344 238.152344 104.851562 238.0625 105.320312 238.0625 C 105.789062 238.0625 106.242188 238.152344 106.675781 238.332031 C 107.109375 238.511719 107.492188 238.765625 107.820312 239.097656 C 108.152344 239.429688 108.410156 239.8125 108.589844 240.246094 C 108.769531 240.679688 108.859375 241.128906 108.859375 241.597656 Z M 108.859375 241.597656 " fill-opacity="1" fill-rule="nonzero"/><path fill="#545454" d="M 94.917969 241.597656 C 94.917969 242.066406 94.828125 242.519531 94.648438 242.953125 C 94.472656 243.386719 94.214844 243.769531 93.882812 244.101562 C 93.550781 244.429688 93.167969 244.6875 92.734375 244.867188 C 92.304688 245.046875 91.851562 245.136719 91.382812 245.136719 C 90.914062 245.136719 90.460938 245.046875 90.03125 244.867188 C 89.597656 244.6875 89.214844 244.429688 88.882812 244.101562 C 88.550781 243.769531 88.292969 243.386719 88.117188 242.953125 C 87.9375 242.519531 87.847656 242.066406 87.847656 241.597656 C 87.847656 241.128906 87.9375 240.679688 88.117188 240.246094 C 88.292969 239.8125 88.550781 239.429688 88.882812 239.097656 C 89.214844 238.765625 89.597656 238.511719 90.03125 238.332031 C 90.460938 238.152344 90.914062 238.0625 91.382812 238.0625 C 91.851562 238.0625 92.304688 238.152344 92.734375 238.332031 C 93.167969 238.511719 93.550781 238.765625 93.882812 239.097656 C 94.214844 239.429688 94.472656 239.8125 94.648438 240.246094 C 94.828125 240.679688 94.917969 241.128906 94.917969 241.597656 Z M 94.917969 241.597656 " fill-opacity="1" fill-rule="nonzero"/><path fill="#545454" d="M 164.195312 146.941406 C 162.949219 145.070312 160.242188 144.445312 158.371094 145.695312 L 120.925781 170.65625 C 119.675781 171.492188 119.050781 172.738281 119.050781 174.195312 C 119.050781 175.652344 119.675781 176.898438 120.925781 177.730469 C 120.925781 177.730469 158.371094 202.695312 158.371094 202.695312 C 160.242188 203.945312 162.949219 203.527344 164.195312 201.449219 C 165.445312 199.574219 165.027344 196.871094 162.949219 195.621094 L 130.703125 174.195312 L 162.949219 152.765625 C 164.820312 151.519531 165.445312 148.8125 164.195312 146.941406 Z M 164.195312 146.941406 " fill-opacity="1" fill-rule="nonzero"/><path fill="#545454" d="M 202.890625 201.449219 C 204.140625 203.320312 206.84375 203.945312 208.714844 202.695312 L 246.164062 177.730469 C 247.410156 176.898438 248.035156 175.652344 248.035156 174.195312 C 248.035156 172.738281 247.410156 171.492188 246.164062 170.65625 L 208.714844 145.695312 C 206.84375 144.445312 204.140625 144.863281 202.890625 146.941406 C 201.640625 148.8125 202.058594 151.519531 204.140625 152.765625 L 236.382812 174.195312 L 204.140625 195.621094 C 202.265625 196.871094 201.640625 199.574219 202.890625 201.449219 Z M 202.890625 201.449219 " fill-opacity="1" fill-rule="nonzero"/><path fill="#545454" d="M 187.910156 141.949219 L 171.269531 204.359375 C 170.644531 206.648438 172.101562 208.9375 174.179688 209.351562 C 174.597656 209.351562 174.804688 209.5625 175.222656 209.5625 C 177.09375 209.5625 178.757812 208.3125 179.175781 206.441406 L 195.816406 144.03125 C 196.441406 141.742188 194.984375 139.453125 192.90625 139.035156 C 190.824219 138.414062 188.535156 139.660156 187.910156 141.949219 Z M 187.910156 141.949219 " fill-opacity="1" fill-rule="nonzero"/><g clip-path="url(#31b6065353)"><path fill="#545454" d="M 166.898438 271.972656 L 154.417969 271.972656 C 152.128906 271.972656 150.257812 273.84375 150.257812 276.132812 C 150.257812 278.421875 152.128906 280.292969 154.417969 280.292969 L 212.667969 280.292969 C 214.957031 280.292969 216.828125 278.421875 216.828125 276.132812 C 216.828125 273.84375 214.957031 271.972656 212.667969 271.972656 L 200.1875 271.972656 L 200.1875 259.488281 L 283.402344 259.488281 C 288.808594 259.488281 293.386719 255.953125 295.050781 251.167969 L 290.683594 251.167969 C 288.808594 251.167969 287.144531 250.960938 285.480469 250.335938 C 284.855469 250.753906 284.023438 251.167969 283.191406 251.167969 L 83.683594 251.167969 C 81.398438 251.167969 79.523438 249.296875 79.523438 247.007812 L 79.523438 234.527344 L 255.523438 234.527344 L 254.898438 233.902344 C 252.820312 231.820312 251.15625 229.117188 250.324219 226.203125 L 79.523438 226.203125 L 79.523438 126.347656 C 79.523438 124.058594 81.398438 122.183594 83.683594 122.183594 L 283.402344 122.183594 C 285.6875 122.183594 287.5625 124.058594 287.5625 126.347656 L 287.5625 147.566406 C 288.601562 147.359375 289.640625 147.148438 290.890625 147.148438 L 295.882812 147.148438 L 295.882812 126.347656 C 295.882812 119.480469 290.265625 113.863281 283.402344 113.863281 L 83.683594 113.863281 C 76.820312 113.863281 71.203125 119.480469 71.203125 126.347656 L 71.203125 247.007812 C 71.203125 253.871094 76.820312 259.488281 83.683594 259.488281 L 166.898438 259.488281 Z M 175.222656 259.488281 L 191.863281 259.488281 L 191.863281 271.972656 L 175.222656 271.972656 Z M 175.222656 259.488281 " fill-opacity="1" fill-rule="nonzero"/></g><g clip-path="url(#7989d8ecf7)"><path fill="#545454" d="M 329.378906 186.054688 C 328.960938 185.011719 328.546875 184.179688 328.128906 183.140625 C 330.832031 179.1875 330.417969 173.777344 326.878906 170.242188 L 322.71875 166.082031 C 320.847656 164.210938 318.144531 163.167969 315.4375 163.167969 C 313.359375 163.167969 311.484375 163.792969 309.820312 164.832031 C 308.988281 164.417969 307.949219 164 306.910156 163.585938 C 305.867188 158.800781 301.707031 155.472656 296.921875 155.472656 L 291.097656 155.472656 C 286.105469 155.472656 281.945312 159.007812 281.113281 163.585938 C 280.074219 164 279.242188 164.417969 278.199219 164.832031 C 276.535156 163.792969 274.664062 163.167969 272.582031 163.167969 C 269.878906 163.167969 267.175781 164.210938 265.300781 166.082031 L 261.140625 170.242188 C 257.605469 173.777344 257.1875 179.1875 259.894531 183.140625 C 259.476562 183.972656 259.0625 185.011719 258.644531 186.054688 C 253.859375 187.09375 250.53125 191.253906 250.53125 196.039062 L 250.53125 201.863281 C 250.53125 206.855469 254.066406 211.015625 258.644531 211.847656 C 259.0625 212.890625 259.476562 213.722656 259.894531 214.761719 C 258.851562 216.425781 258.226562 218.296875 258.226562 220.378906 C 258.226562 223.082031 259.269531 225.789062 261.140625 227.660156 L 265.300781 231.820312 C 267.175781 233.695312 269.878906 234.734375 272.582031 234.734375 C 274.664062 234.734375 276.535156 234.109375 278.199219 233.070312 C 279.03125 233.484375 280.074219 233.902344 281.113281 234.316406 C 282.152344 239.101562 286.3125 242.429688 291.097656 242.429688 L 296.921875 242.429688 C 301.917969 242.429688 306.078125 238.894531 306.910156 234.316406 C 307.949219 233.902344 308.78125 233.484375 309.820312 233.070312 C 311.484375 234.109375 313.359375 234.734375 315.4375 234.734375 C 318.144531 234.734375 320.847656 233.695312 322.71875 231.820312 L 326.878906 227.660156 C 328.753906 225.789062 329.792969 223.082031 329.792969 220.378906 C 329.792969 218.296875 329.167969 216.425781 328.128906 214.761719 C 328.546875 213.929688 328.960938 212.890625 329.378906 211.847656 C 334.160156 210.808594 337.492188 206.648438 337.492188 201.863281 L 337.492188 196.039062 C 337.492188 191.253906 333.953125 187.09375 329.378906 186.054688 Z M 329.167969 202.070312 C 329.167969 203.113281 328.335938 203.945312 327.296875 203.945312 L 322.929688 203.945312 C 322.097656 208.519531 320.429688 212.472656 317.933594 216.011719 L 321.054688 219.128906 C 321.886719 219.964844 321.886719 221.210938 321.054688 221.835938 L 316.894531 225.996094 C 316.480469 226.414062 316.0625 226.621094 315.4375 226.621094 C 314.816406 226.621094 314.398438 226.414062 313.984375 225.996094 L 310.863281 222.875 C 307.324219 225.371094 303.164062 227.246094 298.796875 227.867188 L 298.796875 232.238281 C 298.796875 233.277344 297.964844 234.109375 296.921875 234.109375 L 291.097656 234.109375 C 290.058594 234.109375 289.226562 233.277344 289.226562 232.238281 L 289.226562 228.285156 C 284.648438 227.453125 280.695312 225.789062 277.160156 223.292969 L 273.625 226.203125 C 273.207031 226.621094 272.792969 226.828125 272.167969 226.828125 C 271.542969 226.828125 271.335938 226.621094 270.917969 226.203125 L 266.757812 222.042969 C 265.925781 221.210938 265.925781 219.964844 266.757812 219.339844 L 269.878906 216.21875 C 267.382812 212.683594 265.511719 208.519531 264.886719 204.152344 L 260.515625 204.152344 C 259.476562 204.152344 258.644531 203.320312 258.644531 202.28125 L 258.644531 196.453125 C 258.644531 195.414062 259.476562 194.582031 260.515625 194.582031 L 264.675781 194.582031 C 265.511719 190.003906 267.175781 186.054688 269.671875 182.515625 L 266.757812 178.980469 C 265.925781 178.148438 265.925781 176.898438 266.757812 176.273438 L 270.917969 172.113281 C 271.335938 171.699219 271.75 171.492188 272.375 171.492188 C 273 171.492188 273.414062 171.699219 273.832031 172.113281 L 276.953125 175.234375 C 280.488281 172.738281 284.648438 170.867188 289.019531 170.242188 L 289.019531 165.875 C 289.019531 164.832031 289.851562 164 290.890625 164 L 296.714844 164 C 297.753906 164 298.585938 164.832031 298.585938 165.875 L 298.585938 170.035156 C 303.164062 170.867188 307.117188 172.53125 310.652344 175.027344 L 313.773438 171.90625 C 314.191406 171.492188 314.605469 171.28125 315.230469 171.28125 C 315.855469 171.28125 316.269531 171.492188 316.6875 171.90625 L 320.847656 176.066406 C 321.679688 176.898438 321.679688 178.148438 320.847656 178.773438 L 317.726562 181.890625 C 320.222656 185.429688 322.097656 189.589844 322.71875 193.957031 L 327.089844 193.957031 C 328.128906 193.957031 328.960938 194.789062 328.960938 195.832031 L 328.960938 202.070312 Z M 329.167969 202.070312 " fill-opacity="1" fill-rule="nonzero"/></g><path fill="#545454" d="M 293.804688 182.515625 C 284.648438 182.515625 277.160156 190.003906 277.160156 199.160156 C 277.160156 208.3125 284.648438 215.800781 293.804688 215.800781 C 302.957031 215.800781 310.445312 208.3125 310.445312 199.160156 C 310.445312 190.003906 302.957031 182.515625 293.804688 182.515625 Z M 293.804688 207.480469 C 289.226562 207.480469 285.480469 203.734375 285.480469 199.160156 C 285.480469 194.582031 289.226562 190.835938 293.804688 190.835938 C 298.378906 190.835938 302.125 194.582031 302.125 199.160156 C 302.125 203.734375 298.378906 207.480469 293.804688 207.480469 Z M 293.804688 207.480469 " fill-opacity="1" fill-rule="nonzero"/></svg>