<svg xmlns="http://www.w3.org/2000/svg" xmlns:xlink="http://www.w3.org/1999/xlink" width="500" zoomAndPan="magnify" viewBox="0 0 375 374.999991" height="500" preserveAspectRatio="xMidYMid meet" version="1.0"><defs><clipPath id="fa5723f9d4"><path d="M 75.386719 95.886719 L 197 95.886719 L 197 128 L 75.386719 128 Z M 75.386719 95.886719 " clip-rule="nonzero"/></clipPath><clipPath id="6cd3a4d74b"><path d="M 75.386719 159 L 197.636719 159 L 197.636719 256.386719 L 75.386719 256.386719 Z M 75.386719 159 " clip-rule="nonzero"/></clipPath><clipPath id="5eb4da5db7"><path d="M 154.140625 109.796875 L 299.640625 109.796875 L 299.640625 279.296875 L 154.140625 279.296875 Z M 154.140625 109.796875 " clip-rule="nonzero"/></clipPath></defs><g clip-path="url(#fa5723f9d4)"><path fill="#50d689" d="M 152.816406 127.128906 L 196.484375 127.128906 L 196.484375 95.886719 L 75.441406 95.886719 L 75.441406 127.128906 Z M 152.816406 127.128906 " fill-opacity="1" fill-rule="nonzero"/></g><g clip-path="url(#6cd3a4d74b)"><path fill="#50d689" d="M 110.472656 224.683594 L 110.472656 190.984375 L 186.070312 190.984375 L 186.070312 159.722656 L 75.441406 159.722656 L 75.441406 256.152344 L 197.59375 256.152344 L 197.59375 224.683594 Z M 110.472656 224.683594 " fill-opacity="1" fill-rule="nonzero"/></g><g clip-path="url(#5eb4da5db7)"><path fill="#e4dfdf" d="M 207.289062 279.082031 C 177.984375 279.054688 154.140625 255.199219 154.136719 225.898438 L 154.136719 222.921875 L 197.5625 222.921875 L 197.5625 226.09375 C 197.644531 231.363281 201.957031 235.621094 207.246094 235.621094 L 241.339844 235.621094 C 246.632812 235.621094 250.949219 230.855469 251.023438 225.578125 L 251.023438 225.402344 C 251.007812 220.089844 246.664062 215.261719 241.339844 215.261719 L 241.023438 215.253906 L 207.289062 215.226562 C 177.984375 215.199219 154.140625 192.332031 154.136719 163.035156 L 154.136719 159.5625 L 197.5625 159.5625 L 197.5625 163.230469 C 197.644531 168.496094 201.957031 172.757812 207.246094 172.757812 L 240.171875 172.757812 L 241.316406 172.722656 C 270.601562 172.765625 294.433594 196.121094 294.445312 225.398438 C 294.445312 239.632812 288.914062 253.488281 278.863281 263.535156 C 268.816406 273.582031 255.453125 279.113281 241.246094 279.113281 C 241.246094 279.113281 207.289062 279.082031 207.289062 279.082031 Z M 198.90625 153.234375 L 169.671875 109.816406 L 270.703125 109.816406 L 299.609375 153.234375 Z M 198.90625 153.234375 " fill-opacity="1" fill-rule="nonzero"/></g></svg>